<svg width="25" height="25" viewBox="0 0 25 25" fill="none" xmlns="http://www.w3.org/2000/svg">
<path d="M14.895 19.3201C14.705 19.3201 14.515 19.2501 14.365 19.1001C14.075 18.8101 14.075 18.3301 14.365 18.0401L19.905 12.5001L14.365 6.96012C14.075 6.67012 14.075 6.19012 14.365 5.90012C14.655 5.61012 15.135 5.61012 15.425 5.90012L21.495 11.9701C21.785 12.2601 21.785 12.7401 21.495 13.0301L15.425 19.1001C15.275 19.2501 15.085 19.3201 14.895 19.3201Z" fill="white"/>
<path d="M20.795 13.25H3.96497C3.55497 13.25 3.21497 12.91 3.21497 12.5C3.21497 12.09 3.55497 11.75 3.96497 11.75H20.795C21.205 11.75 21.545 12.09 21.545 12.5C21.545 12.91 21.205 13.25 20.795 13.25Z" fill="white"/>
</svg>
