<svg width="100" height="155" viewBox="0 0 100 155" fill="none" xmlns="http://www.w3.org/2000/svg">
<path d="M99.7864 5.23136V36.0058C85.0682 31.3227 68.2389 29.0927 50.8447 29.6576C31.8894 30.2077 14.1681 34.1177 0 40.3618V8.68048C15.0453 3.67034 31.9935 0.548301 49.9527 0.102295C67.451 -0.462646 84.2951 1.32138 99.7864 5.23136Z" fill="#1D1C18"/>
<path d="M51.8407 58.7367C69.012 58.1866 85.5142 60.8478 99.7864 65.9768V98.4163C87.4172 91.5032 70.6919 87.8163 52.7328 88.2623C44.8236 88.3812 37.2415 89.4813 30.3284 91.3843V155H0V71.656C14.1533 63.9698 32.2165 59.2719 51.8407 58.7218V58.7367Z" fill="#1D1C18"/>
</svg>
