<?xml version="1.0" encoding="UTF-8"?>
<svg id="Layer_2" data-name="Layer 2" xmlns="http://www.w3.org/2000/svg" viewBox="0 0 354.1 313.7">
  <defs>
    <style>
      .cls-1 {
        fill: #f1ede0;
        stroke-width: 0px;
      }
    </style>
  </defs>
  <g id="Layer_1-2" data-name="Layer 1">
    <path class="cls-1" d="m354.1,313.7V101.32c-.78-.57-1.52-1.17-2.18-1.83-1.72-1.71-2.93-3.87-5.36-4.89-2.52-1.07-5.66-.6-8.33-1.38-4.76-1.38-6.39-5.93-7.36-9.85-5.2-.45-9.92-1.05-15.01-.07,1.23,3.13-2.12,6.22-2.45,9.49-.16,1.57.4,3.17.16,4.74-.5,3.25-4.2,5.53-7.97,6.44-3.02.72-6.21.74-9.35.61-.36-.01-.75-.03-1.08-.18-.57-.26-.78-.82-.97-1.31-1.79-4.81-5.83-8.5-10.27-11.96-4.29-3.33-6.35-7.74-9.47-11.73-3.38-4.33-6.92-8.57-10.64-12.74-2.83-3.17-5.78-6.33-9.6-8.77-7.22-4.62-17.25-6.53-22.89-12.37-1.13-1.16-2.07-2.47-3.49-3.4-1.65-1.08-6.42-5.48-6.47-7.16-.03-1.04-3.48-1.72-10.33-2.04.52.01-3.16,2.39-3.38,2.56-1.3.93-2.43,2.53-4.18,2.95-1.61.4-3.38-.42-4.29-1.54-2.48-3.1-1.61-7.67-2.03-11.13-.71-5.74-4.15-11.02-7.51-16.14-.83-1.26-1.72-2.56-3.18-3.38-1.13-.64-2.52-.92-3.87-1.19-6.8-1.35-13.6-2.71-20.41-4.06-3.21-.64-6.52-1.28-9.8-.85-3.28.44-8.24,1.79-8.76,4.36-4.6,3.94-9.2,7.87-13.79,11.81-2.67,2.3-5.45,4.72-6.53,7.72-1.82,5.15,1.93,11.36-2.52,15.87-1.39,1.41-3.07,2.69-3.87,4.36-.89,1.85-.54,3.88-.38,5.85.26,3.38-1.94,6.3-4.89,8.6-1.94,1.5-6.25,2.61-7.06,4.72-.28.74-.1,1.54.09,2.31,1.2,4.96,1.61,8.8-.31,13.74-2.27,5.88-6.58,11.22-11.54,15.92-2.38,2.26-4.96,4.51-6.16,7.29-1.28,2.97-.83,6.23-1.72,9.29h.02s-8.82,3.83-10.12,3.83-3.21,6.71-3.21,6.71c2.22,5.63,0,12.22-5.5,16.24-2.85,2.08-6.4,3.47-9.3,5.52-7.77,5.51-9.32,14.57-14.71,21.62-5.47,7.16-15.25,12.18-25.79,13.22-5.41.53-10.93.08-16.35.56l6.12,134.03h347.98Z"/>
  </g>
</svg>