<svg width="522" height="295" viewBox="0 0 522 295" fill="none" xmlns="http://www.w3.org/2000/svg">
<path d="M522 294.986C511.525 286.58 501.064 278.161 490.588 269.756C484.869 265.162 479.063 260.511 472.264 257.624C463.174 253.756 452.874 253.272 443.77 249.432C424.205 241.155 414.284 219.423 396.339 208.173C390.27 204.376 383.427 201.873 377.212 198.317C366.97 192.458 358.493 183.697 353.11 173.386C347.726 163.075 331.751 159.59 323.128 150.915C316.461 144.202 312.405 133.123 302.863 132.255C298.574 131.871 294.474 133.862 290.214 134.502C274.151 136.906 261.005 120.195 244.767 119.512C233.358 119.043 222.372 126.652 211.182 124.404C194.87 121.133 188.932 99.672 173.38 93.8693C166.829 91.4231 164.597 93.8266 158.09 91.2666C155.566 90.2711 153.027 89.2613 150.78 87.7822C147.293 85.4924 144.638 82.1929 141.589 79.3769C135.476 73.7307 127.597 69.976 119.31 68.568C110.104 60.9022 103.145 53.7484 93.9389 46.0826C88.6282 41.6595 83.1279 37.1369 76.4604 35.1031C71.5437 33.6098 66.2476 33.5529 61.4185 31.8604C58.2671 30.7511 55.4221 28.9875 52.3729 27.6364C46.5808 25.0906 40.0592 24.1235 33.7419 24.8773C32.6476 30.1253 27.5121 33.8373 22.1723 35.0462C16.8325 36.2551 11.2446 35.4444 5.8172 34.6195C-4.29346 33.0978 -10.2314 27.3946 -19.5251 23.2418C-28.629 19.16 -39.5566 21.9902 -49.1275 19.0604C-59.1797 16.0026 -67.7293 6.71553 -78.1318 8.26575C-81.5165 8.77775 -84.6971 10.4418 -88.1257 10.5982C-95.8291 10.9253 -101.534 3.78575 -108.755 1.18308C-117.568 -2.00269 -127.211 1.8942 -135.965 5.2222C-144.719 8.5502 -155.238 11.1671 -163 5.9902V295H521.985L522 294.986Z" fill="#1D1C18"/>
</svg>
