<svg width="1512" height="305" viewBox="0 0 1512 305" fill="none" xmlns="http://www.w3.org/2000/svg">
<g clip-path="url(#clip0_32_4834)">
<path d="M1539 84.4047V260.661C1532.37 261.955 1525.69 263.176 1518.97 264.356C1460.45 274.676 1399.72 278.621 1339.59 284.515C1239.67 294.308 1139.34 304.236 1037.75 304.72C974.708 305.025 911.616 304.529 848.57 304.615C772.387 304.714 695.052 306.773 619.481 300.257C556.764 294.856 494.722 288.445 432.469 281.796C400.552 278.384 368.141 277.037 336.246 273.428C286.819 267.839 237.108 263.056 187.527 257.902C146.256 253.608 102.915 252.181 62.257 246.315C32.3872 242.009 3.9978 234.066 -24.0001 226.348V50.3508C-18.9689 47.9804 -12.304 44.9628 -6.6261 44.1583C-3.61987 43.7268 1.30933 43.5881 4.40063 43.9055C10.7478 44.5498 12.0922 46.3406 17.2198 48.3503C23.913 50.9642 32.8864 52.4314 41.0316 52.4899C60.2263 52.6348 76.0516 59.5362 93.9758 63.0008C112.183 66.5301 140.147 72.6363 153.749 60.9449C158.401 56.9501 159.246 56.2412 166.427 54.1174C173.449 52.0337 176.892 49.0932 182.899 46.5872C184.89 45.7519 188.163 45.419 190.346 44.6237C193.96 43.3106 198.735 40.444 201.469 38.6994C207.085 35.13 211.969 31.7857 218.713 29.1164C225.037 26.6227 233.376 26.071 240.693 28.1146C251.209 31.049 253.552 38.8381 262.599 42.9839C275.48 48.8959 298.719 53.7198 311.782 45.9492C315.605 43.6805 317.449 40.8478 321.465 38.6778C326.07 36.1904 332.344 34.5444 337.375 32.3467C348.436 27.5104 360.745 22.9701 370.881 17.5174C377.88 13.7538 381.868 9.68204 390.002 7.46582C398.918 5.03075 408.805 2.21655 418.624 0.459602C433.105 -2.14808 440.972 7.00346 450.252 12.6411C463.071 20.4241 475.209 28.5923 491.551 34.042C501.659 37.4141 517.62 41.4797 529.016 43.585C541.546 45.8937 554.904 46.1587 567.553 48.7664C572.669 49.8206 578.04 50.0949 582.595 51.8919C585.613 53.0879 587.014 55.1038 589.663 56.2905C595.363 58.8458 602.119 59.9462 607.587 62.9515C623.463 71.69 638.551 72.6332 658.359 69.8868C662.255 69.3412 666.6 69.9053 670.338 69.0638C675.71 67.8617 676.725 65.8181 682.023 65.103C686.686 64.4649 690.117 65.1954 694.978 63.9409C699.873 62.6741 704.638 61.7185 709.437 60.5287C719.011 58.1522 726.669 54.5366 733.895 50.3908C739.698 47.0588 745.092 38.9522 751.734 37.6453C761.7 35.688 768.013 38.573 773.714 42.6818C780.322 47.4472 793.482 50.659 803.068 53.3776C812.58 56.0716 827.951 56.7097 838.672 56.7621C852.37 56.8206 869.869 58.2478 883.023 55.7264C892.875 53.8338 899.347 50.0117 907.47 46.581C911.049 45.0676 914.855 43.2428 918.457 41.7695C922.609 40.0772 926.931 39.917 930.975 38.4991C932.978 37.7963 933.261 36.4031 935.224 35.7064C936.642 35.2009 938.656 35.3674 940.17 35.0098C945.309 33.7954 949.597 33.4162 955.105 33.3577C966.756 33.2313 976.756 31.499 988.072 31.2463C1001.55 30.9411 1005.33 32.6734 1014.54 38.1199C1023.46 43.3877 1035.12 47.4225 1043.01 52.943C1045.54 54.7 1047.26 57.5019 1050.17 58.9999C1053.49 60.7106 1057.48 60.7106 1061.25 61.9343C1068.12 64.1567 1070.18 65.2725 1078.46 66.2003C1086.46 67.1034 1094.48 68.9682 1102.54 69.5262C1108.75 69.9577 1114.78 69.0207 1121.05 69.8498C1127.9 70.7529 1130.73 73.0493 1136.46 74.5597C1146.52 77.2197 1159.09 76.557 1167.87 82.1176C1172.73 85.1969 1171.79 85.2555 1178.44 86.624C1182.89 87.5333 1186.93 88.3964 1191.3 89.543C1196.08 90.7976 1200.84 91.5127 1205.75 92.462C1211.73 93.6087 1215.64 95.5136 1221.31 97.0332C1248.22 104.252 1275.75 95.6184 1297.78 87.6628C1305.86 84.75 1317 84.7037 1324.5 81.7046C1332.68 78.4342 1337.44 73.3699 1346.98 70.232C1357.56 66.7489 1366.58 62.2364 1376.43 58.3002C1386.59 54.2469 1397.58 51.8241 1409.38 49.4476C1424.25 46.467 1430.09 49.4877 1442.34 53.0971C1450.74 55.5661 1459.9 54.2068 1468.8 56.0778C1488.67 60.2575 1497.3 74.2052 1516.46 80C1523.75 82.2039 1531.01 84.0133 1538.98 84.3986L1539 84.4047Z" fill="#DAD6C9"/>
</g>
<defs>
<clipPath id="clip0_32_4834">
<rect width="1563" height="305" fill="white" transform="matrix(-1 0 0 1 1539 0)"/>
</clipPath>
</defs>
</svg>
