<svg width="711" height="185" viewBox="0 0 711 185" fill="none" xmlns="http://www.w3.org/2000/svg">
<path d="M710.917 185H0V0C15.8614 13.9767 41.3478 24.5892 62.4271 34.1313C76.2513 40.3856 90.0547 46.6399 103.879 52.879C115.791 58.2617 128.368 63.8126 142.337 64.2714C159.009 64.8219 175.619 58.0017 191.855 60.846C199.671 62.2223 206.427 65.6935 213.62 68.339C257.109 84.273 316.439 69.5929 353.338 92.8517C365.707 100.651 379.365 109.214 393.335 115.361C413 124.016 435.992 127.426 458.485 130.684C478.005 133.513 497.837 136.357 517.628 134.965C528.084 134.231 538.374 132.32 548.852 131.723C572.301 130.378 596.353 135.959 614.522 146.954C627.639 154.89 648.074 154.202 665.079 154.539C670.276 154.631 675.598 154.478 680.566 155.609C690.378 157.842 696.823 164.54 702.539 170.809C707.466 176.207 711.603 178.516 710.938 185H710.917Z" fill="#DAD6C9"/>
</svg>
