<svg width="1159" height="382" viewBox="0 0 1159 382" fill="none" xmlns="http://www.w3.org/2000/svg">
<path d="M-80.0408 149.011C-50.8813 128.053 -12.2304 121.532 24.8767 120.765C61.9838 119.997 99.1275 124.301 136.152 121.965C225.102 116.361 308.022 72.9291 397.172 71.9867C439.184 71.5364 480.941 80.6265 522.899 78.6417C560.929 76.8487 597.643 66.049 634.074 55.9415C661.379 48.3692 689.05 41.0888 717.506 39.1457C740.116 37.6029 762.826 39.4626 785.499 39.5543C880.56 39.9463 973.528 9.38196 1068.57 11.3584C1099.52 12.0006 1133.12 15.5115 1159 0V261.452C1116.94 267.749 1077.47 274.387 1035.41 280.692C1001.92 285.704 968.358 290.741 935.663 299.055C904.677 306.944 874.037 317.852 841.881 318.603C813.626 319.262 785.819 311.998 757.573 311.031C697.08 308.971 639.492 335.691 579.044 338.643C538.886 340.603 499.011 331.996 458.807 330.912C411.057 329.62 363.838 338.926 316.581 345.298C242.431 355.297 167.121 358.107 92.3217 353.671C58.6038 351.669 24.1824 348.258 -8.53063 355.981C-21.7492 359.1 -34.3832 363.978 -46.9532 368.84C-58.2991 373.227 -69.6541 377.613 -81 382L-80.0408 149.011Z" fill="#727068"/>
</svg>
