<svg width="846" height="298" viewBox="0 0 846 298" fill="none" xmlns="http://www.w3.org/2000/svg">
<g clip-path="url(#clip0_39_2136)">
<path d="M859.05 46.1278C854.403 47.0017 850.764 46.0405 847.22 42.7054C843.677 39.3703 840.624 35.3362 836.536 32.8167C832.311 30.2099 827.35 29.438 822.553 28.4185C807.616 25.2437 793.347 19.2289 779.173 13.2578C769.197 9.04897 758.839 4.54882 751.684 -4C740.1 -3.75242 730.274 6.90812 719.534 11.5248C711.126 15.1365 701.817 15.2531 692.768 15.8356C676.604 16.8696 660.536 19.593 644.864 23.9621C630.254 28.0253 614.744 34.5789 607.398 48.6619C603.828 55.5068 598.554 53.2057 592.175 57.0797C582.608 62.9051 571.037 63.007 560.339 65.745C547.228 69.1092 535.453 76.4929 524.673 84.9398C519.862 88.7118 515.651 91.2458 510.554 94.1585C505.539 97.0276 501.259 102.664 495.017 101.979C492.005 101.644 489.252 99.7364 486.227 99.7073C481.552 99.6636 477.709 104.033 473.062 104.426C467.76 104.863 463.454 100.173 459.978 95.8625C455.903 98.9937 451.856 102.911 448.653 107.033C447.167 108.941 445.736 110.994 443.719 112.232C441.43 113.63 438.663 113.79 436.169 114.737C430.84 116.761 427.338 122.048 423.426 126.402C416.012 134.645 406.336 140.078 396.837 145.364C390.35 148.976 384.19 154.656 378.548 159.622C364.674 171.841 345.035 173.384 329.594 183.229C318.473 190.307 309.682 201.594 297.539 206.415C283.897 211.832 272.558 218.182 259.352 224.721C254.923 226.92 250.384 229.148 245.533 229.731C238.214 230.619 230.936 227.692 223.577 227.736C203.379 227.838 187.448 249.625 167.25 249.421C161.267 249.363 155.434 247.324 149.465 246.858C142.582 246.333 135.7 247.921 128.818 247.659C124.879 247.513 120.954 246.756 117.002 246.96C112.749 247.178 108.62 248.503 104.531 249.814C81.063 257.387 52.1841 255.873 31.5777 269.65C20.5522 277.019 10.944 286.587 -0.0542221 294L93.5604 293.126H961.946L859.009 46.1278H859.05Z" fill="#DAD6C9"/>
</g>
<defs>
<clipPath id="clip0_39_2136">
<rect width="962" height="298" fill="white"/>
</clipPath>
</defs>
</svg>
