<svg width="1063" height="245" viewBox="0 0 1063 245" fill="none" xmlns="http://www.w3.org/2000/svg">
<g clip-path="url(#clip0_27_260)">
<path d="M395.607 164.358C427.75 159.233 457.166 147.993 486.123 136.878C537.562 117.132 589.026 97.367 640.466 77.6202C647.705 74.8326 655.352 71.9731 663.611 71.9911C670.62 71.9911 677.248 74.0953 683.646 76.1455C721.499 88.2849 759.326 100.442 797.179 112.582C804.342 114.884 811.734 117.222 819.585 117.365C824.81 117.473 830.01 116.592 834.904 115.315C867.557 106.773 888.791 80.8214 923.304 77.6202C932.532 76.757 942.091 77.6742 951.038 75.9297C959.602 74.2751 966.892 70.3545 973.928 66.5059C1014.61 44.3313 1055.32 22.1746 1096 0V245H0V227.052C11.6745 215.704 30.2058 211.333 49.6293 208.312C69.0273 205.291 89.2665 203.942 107.288 198.007C122.251 193.079 137.112 184.879 153.298 187.145C164.666 188.745 175.27 195.471 186.358 193.133C195.153 191.281 199.817 184.447 207.668 181.084C212.843 178.872 219.088 178.278 224.466 176.318C238.435 171.21 243.915 157.83 258.623 153.856C261.707 158.046 267.468 161.211 273.994 162.29C276.492 162.704 279.168 162.83 281.437 163.711C283.807 164.628 285.464 166.229 287.274 167.668C299.943 177.685 324.49 178.548 338.509 169.466C340.982 167.865 343.25 165.977 346.36 165.096C349.954 164.107 353.982 164.664 357.805 165.06C373.66 166.714 379.982 166.858 395.607 164.358Z" fill="#1D1C18"/>
</g>
<defs>
<clipPath id="clip0_27_260">
<rect width="1096" height="245" fill="white"/>
</clipPath>
</defs>
</svg>
