<?xml version="1.0" encoding="UTF-8"?>
<svg id="Layer_2" data-name="Layer 2" xmlns="http://www.w3.org/2000/svg" viewBox="0 0 918.86 265.8">
  <defs>
    <style>
      .cls-1 {
        fill: #727068;
        stroke-width: 0px;
      }
    </style>
  </defs>
  <g id="Layer_1-2" data-name="Layer 1">
    <path class="cls-1" d="m918.86,265.8c-30.89-2.91-59.02-6.22-69.51-6.44-77.84-1.62-62.86-48.24-140.71-48.56-18.43-.07-36.9-1.57-55.28-.36-19.07-6.31-37.67-13.54-54.41-24.72-7.67-5.13-14.85-11.03-22.57-16.08-7.93-5.2-16.39-9.49-24.83-13.76-45.11-22.84-90.22-45.7-135.32-68.54-22.01-11.15-47.94-18.57-72.35-21.29-22.64-2.52-38.82-23.6-60.03-32.09-6.15-2.47-12.7-3.85-18.8-6.47-16.41-7.05-34.95-33.94-51-26.04-46.22,22.76-89.79,51.19-129.48,84.46-4.25,3.56-8.6,7.26-13.86,8.87-9.52,2.92-23.03.11-26.85,9.51-14.95,3.05-29.21,9.62-41.34,19.07L0,265.8h918.86Z"/>
  </g>
</svg>