<svg width="348" height="162" viewBox="0 0 348 162" fill="none" xmlns="http://www.w3.org/2000/svg">
<path fill-rule="evenodd" clip-rule="evenodd" d="M198.715 26.2482C198.346 26.2326 197.957 26.1786 197.647 26.0464C196.785 25.6811 196.056 24.3727 194.596 23.8856C193.137 23.3984 192.291 23.1705 191.765 23.0505C191.239 22.9287 191.472 24.2509 192.422 26.1525C193.371 28.0542 194.291 29.5434 195.999 29.2703C196.274 29.2268 196.538 29.1989 196.789 29.1868C196.967 29.667 197.284 30.349 197.819 30.9805C197.346 31.7269 196.68 32.816 196.096 33.9156C195.052 35.8781 192.967 39.2585 189.432 39.8031C185.897 40.3476 181.03 38.1137 174.252 40.7687C167.473 43.4254 162.085 39.4412 151.772 40.5268C146.788 41.0523 143.036 42.465 140.829 44.8294C131.384 50.0749 138.985 58.0763 136.207 62.6224C141.069 61.9178 138.358 56.4304 138.86 53.6032C138.999 54.2887 139.189 55.002 139.431 55.7432C142.445 64.9798 142.907 66.309 138.967 69.6303C135.027 72.9499 132.824 74.34 132.998 76.2103C133.172 78.0823 133.506 79.6377 133.259 83.561C133.067 86.6178 133.302 89.8869 133.39 93.0969H135.563C135.688 89.5494 136.631 83.5523 137.024 81.3271C137.506 78.5869 139.233 76.8819 143.073 74.2478C142.76 74.9924 142.418 75.7266 142.093 76.2834C141.049 78.0649 143.28 80.3284 144.178 82.1395C145.626 85.0589 148.107 89.5389 148.583 93.0951H151.708C149.69 89.5059 148.075 85.4695 147.481 81.2348C147.133 78.7591 147.596 76.7357 150.725 71.1822C153.854 65.627 154.78 63.6958 154.78 63.6958C154.78 63.6958 167.673 67.7461 177.669 66.3508C178.097 69.0301 178.641 72.6263 178.711 73.959C178.827 76.1929 179.87 77.7639 179.927 80.057C180.005 83.3592 179.741 86.7205 179.645 90.0418C179.64 90.2157 179.833 90.4506 179.954 90.4506H180.935V91.7729H184.123C184.123 91.7729 184.214 91.2457 183.709 90.4332C183.203 89.619 181.825 88.2306 181.825 88.2306C182.199 84.918 182.623 81.7759 183.114 78.4877C183.52 75.7701 183.346 72.5706 183.346 72.5706C183.346 72.5706 184.737 77.6421 185.896 80.057C186.853 82.0491 187.786 87.8792 187.923 90.5881C187.934 90.8282 187.944 91.0091 187.943 91.0648C187.938 91.2405 188.131 91.4754 188.252 91.4754H189.233V92.7976H192.421C192.421 92.7976 192.513 92.2705 192.007 91.4562C191.502 90.6437 190.123 89.2554 190.123 89.2554C189.963 87.8618 189.078 81.8403 189.081 81.7464C189.14 80.358 189.314 78.0632 188.387 74.6218C187.46 71.1805 188.387 65.3243 188.387 65.3243C188.387 65.3243 190.339 63.9847 191.689 61.5211C195.433 54.6958 205.018 54.8855 205.711 45.4C205.913 42.632 206.187 40.7356 206.411 39.5264C207.241 39.5943 207.997 39.2185 208.464 38.9436C209.091 38.573 209.605 37.0907 208.82 36.0938C208.129 35.2152 207.683 33.8721 207.917 32.5081C208.177 31.9844 208.53 31.2067 208.55 30.3368C208.578 29.1294 208.289 28.9171 208.376 28.3743C208.463 27.8297 208.478 27.8001 209.463 26.8798C210.448 25.9594 210.767 25.0304 210.84 23.9969C210.875 23.4906 210.935 23.0331 210.987 22.6973C216.991 19.5065 220.402 16.521 220.953 13.4798C221.533 10.2803 220.354 8.16641 220.354 8.16641C220.354 8.16641 221.539 12.5385 218.011 16.0738C218.138 15.6197 218.225 15.0769 218.237 14.4315C218.279 11.8096 219.721 10.4351 220.215 6.99726C220.71 3.5594 217.948 0.165039 217.948 0.165039C219.312 3.9787 219.058 6.84764 218.441 8.12814C218.048 8.93889 217.187 9.13375 216.92 8.1438C216.011 4.79119 216.243 4.1579 213.343 1.12541C214.787 4.28838 215.961 8.84146 215.911 12.3159C215.844 16.9524 215.45 17.5736 213.438 19.1272C215.275 16.0651 213.73 12.5159 213.73 12.5159C213.73 12.5159 213.71 17.8084 211.219 19.9014C209.626 21.2393 208.499 22.0501 207.893 22.4624C208.206 19.1289 207.047 17.4866 207.047 17.4866C207.047 17.4866 207.676 19.7361 206.436 23.4924C206.17 23.7168 205.786 24.0126 205.27 24.3327C205.008 24.2718 204.82 24.2683 204.736 24.3327C204.504 24.5102 204.143 24.752 203.467 24.7955C202.789 24.839 202.282 25.0373 201.881 24.6198C201.604 24.3327 201.247 24.3379 200.954 24.4615C200.714 24.1987 200.482 23.8891 200.291 23.6194C200.534 23.0783 200.926 22.3772 201.14 20.9157C201.457 18.7323 201.247 16.1104 201.247 16.1104C200.62 19.4682 199.624 22.5337 199.136 22.4868C198.65 22.4381 198.348 21.8831 195.358 20.5538C192.369 19.2264 191.696 13.1631 191.696 13.1631C191.696 13.1631 190.549 18.6766 193.938 21.4446C191.846 20.9053 189.128 19.5134 187.99 17.1003C186.575 14.1061 188.245 12.7056 188.036 9.56522C187.828 6.42487 188.245 2.60947 188.245 2.60947C188.245 2.60947 186.948 4.46932 186.854 7.2217C186.762 9.97407 185.789 12.1001 184.189 10.844C182.59 9.58784 183.725 2.5364 183.725 2.5364C183.725 2.5364 182.405 4.46932 182.149 7.12427C181.98 8.87452 182.256 10.4978 182.463 11.4025L182.405 11.3972C181.037 11.2998 180.087 7.70189 180.087 7.70189C180.087 7.70189 179.808 11.8322 181.757 12.7734C183.704 13.7164 183.772 13.7877 184.422 16.1069C185.071 18.4261 186.809 19.7535 190.379 21.5403C193.949 23.3271 195.247 23.0383 196.961 23.8108C198.238 24.3866 198.77 25.2496 198.957 25.6515C198.926 25.6741 198.897 25.695 198.877 25.7176C198.749 25.8498 198.749 26.0168 198.717 26.243" fill="#F7F2E8"/>
<path d="M-6.10352e-05 166H312.443C304.954 157.668 296.738 150.202 292.844 148.867C285.84 146.46 272.415 141.648 272.415 141.648C272.415 141.648 265.117 116.979 258.699 112.167C252.274 107.355 237.39 103.445 231.554 102.241C225.717 101.04 215.502 96.2257 215.502 96.2257L202.366 77.875C202.366 77.875 164.424 78.1769 140.492 84.4924C116.559 90.8079 111.306 97.1273 111.306 97.1273C111.306 97.1273 102.259 117.581 99.9234 121.192C97.5879 124.802 68.9842 124.201 61.6888 126.905C54.3933 129.614 29.289 161.5 29.289 161.5C29.289 161.5 14.2865 162.599 -6.10352e-05 166Z" fill="#F7F2E8"/>
<path fill-rule="evenodd" clip-rule="evenodd" d="M278.191 158.047C296.968 155.453 315.747 151.934 334.524 149.34C340.352 148.535 346.387 147.739 352.074 149.147C356.586 150.265 360.54 152.693 364.737 154.565C373.376 158.419 383.031 159.911 392.53 161.358C402.686 162.904 412.844 164.453 423 166H268.381L278.191 158.047Z" fill="#F7F2E8"/>
</svg>
