<?xml version="1.0" encoding="UTF-8"?>
<svg id="Layer_2" data-name="Layer 2" xmlns="http://www.w3.org/2000/svg" xmlns:xlink="http://www.w3.org/1999/xlink" viewBox="0 0 1218.65 357.67">
  <defs>
    <style>
      .cls-1 {
        fill: none;
      }

      .cls-1, .cls-2 {
        stroke-width: 0px;
      }

      .cls-2 {
        fill: #dad6c9;
      }

      .cls-3 {
        clip-path: url(#clippath);
      }
    </style>
    <clipPath id="clippath">
      <rect class="cls-1" width="1218.65" height="357.67"/>
    </clipPath>
  </defs>
  <g id="Layer_1-2" data-name="Layer 1">
    <g class="cls-3">
      <path class="cls-2" d="m0,88.96c11.4-3.54,23.07-6.26,34.91-8.1,1.75-.27,3.57-.51,5.24,0,3.48,1.1,5.27,5.18,8.86,5.94,5-11.23,18.76-15.95,29.59-22.61,9.74-5.98,17.71-14.17,25.18-22.55,4.29,4.07,13.42,6.24,19.51,6.13.78-.01,1.6-.06,2.31.23.85.34,1.41,1.09,2.11,1.66,3.18,2.54,8.01.84,11.72-.94.12.51,2.43.14,2.05.54.27-1.79.77-3.53,1.46-5.2,1.73-4.18,4.7-7.8,7.6-11.35,4.04-4.94,8.1-9.88,12.14-14.83,9.54-2.8,21.58-4.43,31.13-7.23,6.84-2,13.68-4,20.62-5.63,14.97-3.51,30.38-4.21,45.75-4.41,12.28-.16,29.26-2.97,39.27,5.41,4.21,3.53,7.92,7.97,13.27,9.65,1.69.53,3.47.77,5.11,1.43,2.1.84,3.82,2.3,5.49,3.76,5.53,4.76,11.11,9.57,15.47,15.3,1.54,2.01,2.93,4.17,4.89,5.83,4.77,4.03,11.76,4.38,18.18,4.51,5.9-3.54,8.13,1.16,12.55,6.24s8.95,11.38,15.93,11.9c2.52.19,5.32-.41,7.45.87,2.01,1.23,2.71,3.76,4.65,5.07,3.25,2.23,7.86-.09,10.55-2.9,2.69-2.81,5.08-6.4,9-7.26,6.5-1.43,11.31,5.26,16.4,9.31,8.94,7.13,22.93,7.3,30.67,15.58,5.85,6.26,7.11,16.25,14.82,20.38,3.54,1.9,7.8,2.11,11.81,2.8,13.28,2.26,26.78,9.93,39.36,5.36,4-1.46,7.71-4.13,12.01-4.07,4.56.07,8.45,3.23,12.95,3.86,4.68.66,9.23-1.47,13.42-3.54,11.1-5.5,22.22-11.13,32.07-18.44,3.57-2.66,8.02-5.71,12.25-4.1,16.06-13.7,35.11-23.65,53.77-34.03,1.84-4.01-.29-7.6,2.75-10.91,1.79-1.94,4.85-2.61,6.46-4.68,4.23,3.41,10.7,4.13,15.65,1.74,4.12,3.9,9.33,6.66,15.17,7,2.16.13,4.38-.01,6.47.5,2.45.6,4.56,2.06,6.4,3.68,6.32,5.57,10.78,13.8,19.09,16.1,10.68,2.96,22.51-5.54,32.87-1.69,4.15,1.54,8.69,4.94,12.43,2.67,6.14-3.74,10.03-7.2,16.63-10.17,6.6-2.97,14.64-3.93,21.17-.83,2.33,1.1,4.35,2.64,6.52,4,8.16,5.1,17.95,7.28,27.51,9.35,3.68.8,7.45,1.61,11.2,1.17,3.75-.44,7.52-2.4,8.95-5.68.46-1.06.68-2.26,1.52-3.1.87-.87,2.19-1.17,3.42-1.43,5.03-1.04,10.06-2.09,15.08-3.13,1.43-.3,2.89-.59,4.32-.39,3.01.44,5.14,2.9,7.48,4.73,6.61,5.17,13.65,3.54,20.94,5.91,7.83,2.56,10.9,6.16,16.92,12.11,14.23,14.08,29.65,27.05,46.28,38.59,5.83,4.06,11.87,7.98,16.61,13.13,4.16,4.51,7.4,10,12.73,13.24,5.82,3.54,13.18,3.83,19.7,6.08,19.85,6.84,27.25,29.09,41.17,44.05,17.33,18.62,118.81,140.51,131.67,162.09H0V88.96Z"/>
    </g>
  </g>
</svg>