<svg width="270" height="42" viewBox="0 0 270 42" fill="none" xmlns="http://www.w3.org/2000/svg">
<path fill-rule="evenodd" clip-rule="evenodd" d="M47.475 9L35.1981 33H23.6667L28.8045 23.0534H28.574C24.3353 28.5558 18.0111 32.178 9 33V23.191C9 23.191 14.7646 22.8505 18.1534 19.2877H9V9.00018H19.2875V17.4615L19.5184 17.4605L23.7222 9.00018H31.5024V17.4078L31.7334 17.4075L36.0948 9H47.475Z" fill="#146EF5"/>
<path d="M54.7876 13.3448H60.7555C61.8082 13.3448 62.731 13.5567 63.5239 13.9806C64.3237 14.4044 64.939 14.9991 65.3695 15.7647C65.8072 16.5235 66.0259 17.3883 66.0259 18.359C66.0259 19.3297 65.8072 20.1944 65.3695 20.9532C64.9321 21.712 64.3135 22.3067 63.5137 22.7374C62.7139 23.1681 61.7875 23.3834 60.7348 23.3834H56.6845V20.9327H60.3349C60.8818 20.9327 61.3534 20.8267 61.75 20.6148C62.1532 20.3961 62.461 20.0953 62.6728 19.7125C62.8849 19.3297 62.9941 18.8887 63.001 18.3897C63.001 17.8839 62.8951 17.4395 62.683 17.0567C62.4712 16.6671 62.1601 16.3663 61.75 16.1544C61.3468 15.9425 60.8716 15.8365 60.3247 15.8365H57.6895V28.5001H54.7876V13.3448ZM67.81 17.0567H70.4965V19.3946L70.1068 19.4459C70.2301 18.9127 70.4488 18.4513 70.7632 18.0616C71.0845 17.6651 71.4673 17.3644 71.9116 17.1593C72.3559 16.9474 72.838 16.8414 73.3573 16.8414C73.4464 16.8414 73.5316 16.8482 73.6138 16.8619C73.7026 16.8687 73.7848 16.879 73.8598 16.8927V19.5177C73.7914 19.4903 73.6891 19.4698 73.5523 19.4561C73.4155 19.4356 73.2823 19.4254 73.1524 19.4254C72.6328 19.4254 72.1783 19.5245 71.7886 19.7228C71.4058 19.921 71.1049 20.2149 70.8862 20.6046C70.6744 20.9874 70.5685 21.4522 70.5685 21.9991V28.5001H67.81V17.0567ZM80.5762 28.7462C79.4347 28.7462 78.4264 28.4967 77.5513 27.9976C76.6831 27.4986 76.0063 26.7979 75.5209 25.8956C75.0355 24.9932 74.7931 23.961 74.7931 22.7989C74.7931 21.6231 75.0355 20.5841 75.5209 19.6817C76.0063 18.7726 76.6831 18.0685 77.5513 17.5694C78.4264 17.0704 79.4347 16.8209 80.5762 16.8209C81.7177 16.8209 82.726 17.0704 83.6011 17.5694C84.4828 18.0685 85.1665 18.7726 85.6519 19.6817C86.1373 20.5841 86.3833 21.6231 86.3902 22.7989C86.3833 23.9679 86.1373 25.0035 85.6519 25.9058C85.1665 26.8014 84.4828 27.4986 83.6011 27.9976C82.726 28.4967 81.7177 28.7462 80.5762 28.7462ZM80.5762 26.3673C81.1642 26.3673 81.6802 26.2169 82.1245 25.9161C82.5688 25.6153 82.9072 25.1949 83.1397 24.6549C83.3722 24.1148 83.4883 23.4962 83.4883 22.7989C83.4883 22.0948 83.3722 21.4727 83.1397 20.9327C82.9072 20.3858 82.5688 19.962 82.1245 19.6612C81.6802 19.3604 81.1642 19.2101 80.5762 19.2101C79.9882 19.2101 79.4755 19.3604 79.0381 19.6612C78.6007 19.962 78.2623 20.3858 78.0229 20.9327C77.7904 21.4727 77.6743 22.0948 77.6743 22.7989C77.6743 23.503 77.794 24.1251 78.0331 24.6651C78.2725 25.1983 78.6073 25.6153 79.0381 25.9161C79.4755 26.2169 79.9882 26.3673 80.5762 26.3673ZM89.128 16.3287C89.128 15.5631 89.3023 14.8898 89.6509 14.3087C90.0064 13.7208 90.502 13.2662 91.1377 12.9449C91.7734 12.6236 92.515 12.463 93.3628 12.463C93.5611 12.4561 93.7456 12.4664 93.9166 12.4937C94.0942 12.5143 94.2412 12.5416 94.3573 12.5758V14.9342L94.3063 14.9137C94.2172 14.8863 94.1113 14.8624 93.9883 14.8419C93.8722 14.8214 93.7594 14.8111 93.6499 14.8111C93.274 14.8111 92.956 14.8795 92.6962 15.0162C92.4433 15.1529 92.2519 15.3511 92.122 15.6109C91.9921 15.8707 91.9273 16.1817 91.9273 16.544V28.5001H89.128V16.3287ZM87.2719 17.0567H94.2037V19.3331H87.2719V17.0567ZM100.838 28.7564C99.703 28.7564 98.6983 28.5103 97.8232 28.0182C96.955 27.526 96.2782 26.8287 95.7931 25.9264C95.3077 25.024 95.065 23.9815 95.065 22.7989C95.065 21.6573 95.311 20.6353 95.8033 19.733C96.2953 18.8238 96.9757 18.1163 97.8439 17.6104C98.7118 17.1046 99.6928 16.8517 100.787 16.8517C101.949 16.8517 102.974 17.108 103.863 17.6207C104.758 18.1334 105.438 18.8922 105.903 19.897C106.368 20.8951 106.549 22.088 106.447 23.4757H96.244V21.6402L104.314 21.6197L103.576 21.9273C103.562 21.3668 103.439 20.8678 103.206 20.4303C102.981 19.9928 102.663 19.6544 102.253 19.4151C101.843 19.169 101.371 19.046 100.838 19.046C100.277 19.046 99.775 19.1793 99.3307 19.4459C98.893 19.7125 98.548 20.0851 98.2948 20.5636C98.0488 21.0421 97.9258 21.5753 97.9258 22.1632V23.3014C97.9189 23.9439 98.0419 24.5113 98.2948 25.0035C98.548 25.4889 98.8966 25.8648 99.3409 26.1314C99.7921 26.398 100.305 26.5313 100.879 26.5313C101.296 26.5313 101.679 26.4595 102.027 26.316C102.383 26.1656 102.68 25.9639 102.919 25.711C103.166 25.4512 103.34 25.1505 103.443 24.8087H106.324C106.173 25.5948 105.849 26.2852 105.35 26.88C104.857 27.4747 104.222 27.9361 103.443 28.2643C102.67 28.5924 101.802 28.7564 100.838 28.7564ZM114.558 20.4508C114.51 20.1568 114.404 19.8936 114.24 19.6612C114.076 19.422 113.857 19.2374 113.583 19.1075C113.317 18.9708 113.016 18.9024 112.681 18.9024C112.367 18.9093 112.09 18.9708 111.851 19.087C111.611 19.1964 111.423 19.3502 111.287 19.5484C111.15 19.7467 111.081 19.962 111.081 20.1944C111.081 20.5089 111.188 20.7652 111.399 20.9635C111.618 21.1549 111.967 21.3019 112.445 21.4044L114.291 21.8145C115.337 22.0401 116.116 22.4263 116.629 22.9732C117.142 23.5201 117.398 24.2242 117.398 25.0855C117.391 25.7965 117.196 26.4288 116.813 26.9825C116.438 27.5294 115.904 27.9601 115.214 28.2745C114.53 28.5821 113.744 28.7359 112.856 28.7359C111.926 28.7359 111.105 28.5855 110.394 28.2847C109.69 27.984 109.13 27.5602 108.713 27.0133C108.303 26.4595 108.06 25.8067 107.985 25.0548H110.764C110.846 25.5401 111.071 25.9298 111.44 26.2237C111.809 26.5108 112.281 26.651 112.856 26.6441C113.211 26.6441 113.526 26.5929 113.799 26.4903C114.072 26.3809 114.281 26.234 114.424 26.0494C114.568 25.858 114.64 25.6427 114.64 25.4034C114.626 25.089 114.513 24.8326 114.301 24.6344C114.089 24.4361 113.758 24.2857 113.306 24.1832L111.502 23.773C110.408 23.527 109.601 23.1373 109.082 22.6041C108.563 22.0709 108.306 21.3702 108.313 20.502C108.306 19.7979 108.491 19.1656 108.867 18.6051C109.243 18.0445 109.766 17.6104 110.436 17.3028C111.112 16.9884 111.885 16.8277 112.753 16.8209C113.628 16.8209 114.394 16.9713 115.05 17.272C115.706 17.566 116.226 17.9864 116.608 18.5333C116.991 19.0802 117.22 19.7193 117.295 20.4508H114.558ZM125.591 20.4508C125.543 20.1568 125.437 19.8936 125.273 19.6612C125.109 19.422 124.89 19.2374 124.617 19.1075C124.35 18.9708 124.049 18.9024 123.714 18.9024C123.4 18.9093 123.123 18.9708 122.884 19.087C122.645 19.1964 122.456 19.3502 122.32 19.5484C122.183 19.7467 122.115 19.962 122.115 20.1944C122.115 20.5089 122.221 20.7652 122.433 20.9635C122.652 21.1549 123 21.3019 123.479 21.4044L125.324 21.8145C126.37 22.0401 127.149 22.4263 127.662 22.9732C128.175 23.5201 128.431 24.2242 128.431 25.0855C128.424 25.7965 128.229 26.4288 127.847 26.9825C127.471 27.5294 126.938 27.9601 126.247 28.2745C125.564 28.5821 124.777 28.7359 123.889 28.7359C122.959 28.7359 122.139 28.5855 121.428 28.2847C120.724 27.984 120.163 27.5602 119.746 27.0133C119.336 26.4595 119.093 25.8067 119.018 25.0548H121.797C121.879 25.5401 122.105 25.9298 122.474 26.2237C122.843 26.5108 123.315 26.651 123.889 26.6441C124.244 26.6441 124.559 26.5929 124.832 26.4903C125.105 26.3809 125.314 26.234 125.457 26.0494C125.601 25.858 125.673 25.6427 125.673 25.4034C125.659 25.089 125.547 24.8326 125.334 24.6344C125.123 24.4361 124.791 24.2857 124.34 24.1832L122.535 23.773C121.441 23.527 120.635 23.1373 120.115 22.6041C119.596 22.0709 119.34 21.3702 119.346 20.502C119.34 19.7979 119.524 19.1656 119.9 18.6051C120.276 18.0445 120.799 17.6104 121.469 17.3028C122.145 16.9884 122.918 16.8277 123.786 16.8209C124.661 16.8209 125.427 16.9713 126.083 17.272C126.739 17.566 127.259 17.9864 127.642 18.5333C128.024 19.0802 128.253 19.7193 128.329 20.4508H125.591ZM130.574 17.0567H133.374V28.5001H130.574V17.0567ZM130.533 12.6783H133.497V15.5494H130.533V12.6783ZM141.197 28.7462C140.056 28.7462 139.047 28.4967 138.172 27.9976C137.304 27.4986 136.627 26.7979 136.142 25.8956C135.657 24.9932 135.414 23.961 135.414 22.7989C135.414 21.6231 135.657 20.5841 136.142 19.6817C136.627 18.7726 137.304 18.0685 138.172 17.5694C139.047 17.0704 140.056 16.8209 141.197 16.8209C142.339 16.8209 143.347 17.0704 144.222 17.5694C145.104 18.0685 145.787 18.7726 146.273 19.6817C146.758 20.5841 147.004 21.6231 147.011 22.7989C147.004 23.9679 146.758 25.0035 146.273 25.9058C145.787 26.8014 145.104 27.4986 144.222 27.9976C143.347 28.4967 142.339 28.7462 141.197 28.7462ZM141.197 26.3673C141.785 26.3673 142.301 26.2169 142.745 25.9161C143.19 25.6153 143.528 25.1949 143.761 24.6549C143.993 24.1148 144.109 23.4962 144.109 22.7989C144.109 22.0948 143.993 21.4727 143.761 20.9327C143.528 20.3858 143.19 19.962 142.745 19.6612C142.301 19.3604 141.785 19.2101 141.197 19.2101C140.61 19.2101 140.097 19.3604 139.659 19.6612C139.222 19.962 138.883 20.3858 138.644 20.9327C138.412 21.4727 138.295 22.0948 138.295 22.7989C138.295 23.503 138.415 24.1251 138.654 24.6651C138.894 25.1983 139.229 25.6153 139.659 25.9161C140.097 26.2169 140.61 26.3673 141.197 26.3673ZM151.81 28.5001H149.011V17.0567H151.749V19.4049L151.297 19.5895C151.427 19.0426 151.677 18.5606 152.046 18.1436C152.415 17.7198 152.87 17.3951 153.41 17.1695C153.95 16.9371 154.524 16.8243 155.132 16.8311C155.939 16.8311 156.647 17.0055 157.255 17.3541C157.863 17.6959 158.331 18.1915 158.66 18.8409C158.995 19.4903 159.162 20.2525 159.162 21.1275V28.5001H156.353V21.7018C156.353 21.1959 156.267 20.7618 156.096 20.3995C155.932 20.0304 155.69 19.7535 155.368 19.5689C155.054 19.3775 154.678 19.2818 154.24 19.2818C153.782 19.2818 153.369 19.3946 152.999 19.6202C152.637 19.839 152.347 20.1534 152.128 20.5636C151.916 20.9669 151.81 21.4283 151.81 21.9478V28.5001ZM166.248 28.7052C165.256 28.7052 164.371 28.4557 163.592 27.9566C162.819 27.4576 162.211 26.7603 161.767 25.8648C161.322 24.9625 161.103 23.9234 161.11 22.7476C161.11 21.5719 161.336 20.5362 161.787 19.6407C162.238 18.7452 162.854 18.0548 163.633 17.5694C164.419 17.0772 165.311 16.8346 166.309 16.8414C166.965 16.8414 167.574 16.9645 168.134 17.2105C168.695 17.4498 169.16 17.7813 169.529 18.2052C169.905 18.6222 170.151 19.0768 170.267 19.5689L169.765 19.5484V17.0567H172.574V28.5001H169.795L169.806 26.2852L170.298 25.9981C170.134 26.504 169.854 26.962 169.457 27.3721C169.061 27.7823 168.582 28.107 168.021 28.3463C167.461 28.5855 166.87 28.7052 166.248 28.7052ZM166.863 26.3263C167.444 26.3263 167.96 26.1759 168.411 25.8751C168.862 25.5743 169.214 25.1539 169.467 24.6139C169.72 24.0738 169.85 23.4517 169.857 22.7476C169.857 22.0504 169.73 21.4317 169.478 20.8917C169.225 20.3516 168.869 19.9347 168.411 19.6407C167.96 19.3468 167.444 19.1998 166.863 19.1998C166.289 19.1998 165.786 19.3502 165.356 19.651C164.925 19.9449 164.593 20.3619 164.361 20.902C164.128 21.442 164.012 22.0606 164.012 22.7579C164.012 23.4552 164.128 24.0738 164.361 24.6139C164.6 25.147 164.935 25.5675 165.366 25.8751C165.796 26.1759 166.295 26.3263 166.863 26.3263ZM177.824 28.5001H175.025V12.6783H177.824V28.5001ZM175.025 12.6783H177.824V14.9034H175.025V12.6783ZM175.025 26.275H177.824V28.5001H175.025V26.275ZM185.34 13.3448H191.308C192.361 13.3448 193.284 13.5567 194.077 13.9806C194.877 14.4044 195.492 14.9991 195.922 15.7647C196.36 16.5235 196.579 17.3883 196.579 18.359C196.579 19.3297 196.36 20.1944 195.922 20.9532C195.485 21.712 194.866 22.3067 194.067 22.7374C193.267 23.1681 192.34 23.3834 191.288 23.3834H187.237V20.9327H190.888C191.435 20.9327 191.906 20.8267 192.303 20.6148C192.706 20.3961 193.014 20.0953 193.226 19.7125C193.437 19.3297 193.547 18.8887 193.554 18.3897C193.554 17.8839 193.448 17.4395 193.236 17.0567C193.024 16.6671 192.713 16.3663 192.303 16.1544C191.899 15.9425 191.424 15.8365 190.878 15.8365H188.242V28.5001H185.34V13.3448ZM202.874 28.7052C201.883 28.7052 200.998 28.4557 200.219 27.9566C199.446 27.4576 198.838 26.7603 198.394 25.8648C197.949 24.9625 197.73 23.9234 197.737 22.7476C197.737 21.5719 197.963 20.5362 198.414 19.6407C198.865 18.7452 199.481 18.0548 200.26 17.5694C201.046 17.0772 201.938 16.8346 202.936 16.8414C203.592 16.8414 204.201 16.9645 204.761 17.2105C205.322 17.4498 205.787 17.7813 206.156 18.2052C206.532 18.6222 206.778 19.0768 206.894 19.5689L206.392 19.5484V17.0567H209.201V28.5001H206.422L206.432 26.2852L206.925 25.9981C206.761 26.504 206.48 26.962 206.084 27.3721C205.688 27.7823 205.209 28.107 204.648 28.3463C204.088 28.5855 203.497 28.7052 202.874 28.7052ZM203.49 26.3263C204.071 26.3263 204.587 26.1759 205.038 25.8751C205.489 25.5743 205.841 25.1539 206.094 24.6139C206.347 24.0738 206.477 23.4517 206.484 22.7476C206.484 22.0504 206.358 21.4317 206.105 20.8917C205.852 20.3516 205.496 19.9347 205.038 19.6407C204.587 19.3468 204.071 19.1998 203.49 19.1998C202.916 19.1998 202.413 19.3502 201.982 19.651C201.552 19.9449 201.22 20.3619 200.988 20.902C200.755 21.442 200.639 22.0606 200.639 22.7579C200.639 23.4552 200.755 24.0738 200.988 24.6139C201.227 25.147 201.562 25.5675 201.993 25.8751C202.423 26.1759 202.923 26.3263 203.49 26.3263ZM211.693 17.0567H214.38V19.3946L213.99 19.4459C214.113 18.9127 214.332 18.4513 214.646 18.0616C214.967 17.6651 215.35 17.3644 215.794 17.1593C216.239 16.9474 216.721 16.8414 217.24 16.8414C217.329 16.8414 217.415 16.8482 217.496 16.8619C217.586 16.8687 217.668 16.879 217.743 16.8927V19.5177C217.674 19.4903 217.572 19.4698 217.435 19.4561C217.298 19.4356 217.165 19.4254 217.035 19.4254C216.516 19.4254 216.061 19.5245 215.671 19.7228C215.289 19.921 214.988 20.2149 214.769 20.6046C214.557 20.9874 214.451 21.4522 214.451 21.9991V28.5001H211.693V17.0567ZM221.28 14.2677H224.069V28.5001H221.28V14.2677ZM219.199 17.0567H226.151V19.3433H219.199V17.0567ZM230.519 28.5001H227.72V17.0567H230.457V19.4049L230.007 19.5895C230.136 19.0426 230.386 18.5606 230.755 18.1436C231.124 17.7198 231.579 17.3951 232.119 17.1695C232.659 16.9371 233.233 16.8243 233.841 16.8311C234.648 16.8311 235.356 17.0055 235.964 17.3541C236.572 17.6959 237.041 18.1915 237.369 18.8409C237.704 19.4903 237.871 20.2525 237.871 21.1275V28.5001H235.062V21.7018C235.062 21.1959 234.976 20.7618 234.805 20.3995C234.641 20.0304 234.399 19.7535 234.077 19.5689C233.763 19.3775 233.387 19.2818 232.949 19.2818C232.491 19.2818 232.078 19.3946 231.708 19.6202C231.346 19.839 231.056 20.1534 230.837 20.5636C230.625 20.9669 230.519 21.4283 230.519 21.9478V28.5001ZM245.52 28.7564C244.386 28.7564 243.381 28.5103 242.506 28.0182C241.638 27.526 240.961 26.8287 240.476 25.9264C239.99 25.024 239.748 23.9815 239.748 22.7989C239.748 21.6573 239.994 20.6353 240.486 19.733C240.978 18.8238 241.658 18.1163 242.526 17.6104C243.395 17.1046 244.376 16.8517 245.469 16.8517C246.631 16.8517 247.657 17.108 248.545 17.6207C249.441 18.1334 250.121 18.8922 250.586 19.897C251.051 20.8951 251.232 22.088 251.13 23.4757H240.927V21.6402L248.996 21.6197L248.258 21.9273C248.245 21.3668 248.122 20.8678 247.889 20.4303C247.664 19.9928 247.346 19.6544 246.935 19.4151C246.525 19.169 246.054 19.046 245.52 19.046C244.96 19.046 244.458 19.1793 244.013 19.4459C243.576 19.7125 243.231 20.0851 242.978 20.5636C242.731 21.0421 242.608 21.5753 242.608 22.1632V23.3014C242.602 23.9439 242.725 24.5113 242.978 25.0035C243.231 25.4889 243.579 25.8648 244.023 26.1314C244.475 26.398 244.987 26.5313 245.562 26.5313C245.979 26.5313 246.361 26.4595 246.71 26.316C247.065 26.1656 247.363 25.9639 247.602 25.711C247.848 25.4512 248.022 25.1505 248.125 24.8087H251.007C250.856 25.5948 250.531 26.2852 250.032 26.88C249.54 27.4747 248.904 27.9361 248.125 28.2643C247.353 28.5924 246.484 28.7564 245.52 28.7564ZM253.078 17.0567H255.764V19.3946L255.375 19.4459C255.498 18.9127 255.716 18.4513 256.031 18.0616C256.352 17.6651 256.735 17.3644 257.179 17.1593C257.624 16.9474 258.105 16.8414 258.625 16.8414C258.714 16.8414 258.799 16.8482 258.882 16.8619C258.97 16.8687 259.052 16.879 259.128 16.8927V19.5177C259.059 19.4903 258.957 19.4698 258.82 19.4561C258.683 19.4356 258.55 19.4254 258.42 19.4254C257.901 19.4254 257.446 19.5245 257.056 19.7228C256.673 19.921 256.373 20.2149 256.154 20.6046C255.942 20.9874 255.836 21.4522 255.836 21.9991V28.5001H253.078V17.0567Z" fill="#F6F2E8"/>
</svg>
