<svg width="400" height="205" viewBox="0 0 400 205" fill="none" xmlns="http://www.w3.org/2000/svg">
<path fill-rule="evenodd" clip-rule="evenodd" d="M219.856 32.5618C219.447 32.5425 219.017 32.4759 218.673 32.3128C217.72 31.862 216.913 30.2476 215.298 29.6465C213.684 29.0454 212.747 28.7642 212.165 28.6161C211.583 28.4658 211.842 30.0973 212.893 32.4437C213.942 34.7901 214.96 36.6277 216.85 36.2907C217.155 36.237 217.447 36.2027 217.724 36.1876C217.921 36.7801 218.272 37.6216 218.864 38.4009C218.341 39.3219 217.604 40.6657 216.957 42.0225C215.803 44.444 213.495 48.6151 209.585 49.287C205.674 49.9589 200.289 47.2025 192.789 50.4784C185.289 53.7565 179.328 48.8405 167.918 50.1801C162.404 50.8284 158.253 52.5715 155.811 55.4889C145.361 61.9613 153.771 71.8342 150.697 77.4436C156.077 76.5742 153.077 69.8034 153.633 66.3149C153.786 67.1607 153.997 68.0409 154.265 68.9554C157.599 80.3524 158.111 81.9925 153.751 86.0906C149.391 90.1866 146.955 91.9019 147.147 94.2096C147.339 96.5195 147.709 98.4387 147.435 103.28C147.223 107.051 147.483 111.085 147.581 115.046H149.984C150.123 110.669 151.167 103.269 151.601 100.523C152.135 97.142 154.045 95.0382 158.293 91.7881C157.948 92.7069 157.569 93.6128 157.209 94.2998C156.055 96.498 158.523 99.2909 159.516 101.526C161.118 105.128 163.863 110.656 164.389 115.044H167.848C165.614 110.615 163.828 105.635 163.17 100.409C162.786 97.3546 163.298 94.8579 166.759 88.0055C170.221 81.151 171.247 78.7681 171.247 78.7681C171.247 78.7681 185.511 83.7657 196.571 82.044C197.044 85.35 197.646 89.7873 197.723 91.4317C197.851 94.1881 199.005 96.1266 199.068 98.956C199.155 103.031 198.863 107.178 198.756 111.276C198.75 111.491 198.965 111.781 199.098 111.781H200.184V113.412H203.71C203.71 113.412 203.812 112.762 203.252 111.759C202.693 110.754 201.169 109.041 201.169 109.041C201.582 104.954 202.052 101.077 202.595 97.0197C203.044 93.6665 202.851 89.7186 202.851 89.7186C202.851 89.7186 204.39 95.9764 205.672 98.956C206.731 101.414 207.763 108.608 207.915 111.95C207.928 112.246 207.939 112.47 207.937 112.538C207.931 112.755 208.146 113.045 208.279 113.045H209.365V114.677H212.891C212.891 114.677 212.993 114.026 212.433 113.021C211.875 112.019 210.349 110.306 210.349 110.306C210.172 108.586 209.193 101.156 209.197 101.041C209.261 99.3274 209.454 96.4959 208.428 92.2496C207.403 88.0034 208.428 80.7775 208.428 80.7775C208.428 80.7775 210.588 79.1245 212.082 76.0847C216.224 67.6631 226.829 67.8971 227.596 56.1931C227.819 52.7776 228.122 50.4377 228.37 48.9457C229.288 49.0294 230.124 48.5657 230.642 48.2265C231.334 47.7693 231.903 45.9402 231.035 44.7102C230.27 43.6261 229.777 41.9688 230.036 40.2857C230.324 39.6396 230.714 38.68 230.736 37.6066C230.767 36.1168 230.448 35.8549 230.544 35.1851C230.64 34.5132 230.656 34.4767 231.746 33.3411C232.836 32.2054 233.189 31.0591 233.27 29.7839C233.309 29.1592 233.376 28.5946 233.433 28.1803C240.076 24.2432 243.85 20.5594 244.459 16.8069C245.1 12.859 243.796 10.2508 243.796 10.2508C243.796 10.2508 245.108 15.6455 241.204 20.0077C241.345 19.4474 241.441 18.7776 241.454 17.9812C241.5 14.746 243.096 13.0501 243.643 8.80816C244.19 4.56621 241.134 0.37793 241.134 0.37793C242.643 5.08357 242.363 8.62354 241.679 10.2035C241.245 11.2039 240.292 11.4444 239.996 10.2229C238.991 6.0861 239.248 5.30469 236.039 1.56293C237.637 5.46569 238.936 11.0837 238.881 15.3707C238.807 21.0918 238.371 21.8582 236.145 23.7752C238.177 19.9969 236.468 15.6176 236.468 15.6176C236.468 15.6176 236.446 22.148 233.69 24.7305C231.927 26.3813 230.681 27.3817 230.01 27.8905C230.355 23.7773 229.073 21.7508 229.073 21.7508C229.073 21.7508 229.77 24.5266 228.397 29.1614C228.104 29.4383 227.679 29.8032 227.108 30.1982C226.818 30.1231 226.609 30.1188 226.517 30.1982C226.26 30.4172 225.861 30.7156 225.113 30.7693C224.363 30.8229 223.801 31.0677 223.358 30.5524C223.051 30.1982 222.656 30.2047 222.333 30.3571C222.067 30.0329 221.81 29.6508 221.599 29.3181C221.867 28.6504 222.301 27.7853 222.538 25.982C222.889 23.2879 222.656 20.0528 222.656 20.0528C221.963 24.196 220.86 27.9785 220.321 27.9205C219.783 27.8604 219.449 27.1756 216.141 25.5355C212.834 23.8976 212.09 16.4162 212.09 16.4162C212.09 16.4162 210.821 23.2192 214.57 26.6347C212.256 25.9692 209.248 24.2518 207.989 21.2743C206.424 17.5797 208.271 15.8516 208.04 11.9767C207.809 8.10188 208.271 3.39409 208.271 3.39409C208.271 3.39409 206.836 5.68895 206.733 9.08509C206.631 12.4812 205.554 15.1045 203.784 13.5546C202.015 12.0047 203.271 3.30393 203.271 3.30393C203.271 3.30393 201.81 5.68895 201.527 8.96487C201.34 11.1245 201.645 13.1274 201.874 14.2437L201.81 14.2373C200.297 14.117 199.246 9.67759 199.246 9.67759C199.246 9.67759 198.937 14.7739 201.093 15.9353C203.247 17.0989 203.322 17.1869 204.041 20.0485C204.76 22.9101 206.683 24.548 210.632 26.7527C214.582 28.9574 216.019 28.6011 217.914 29.5542C219.327 30.2648 219.916 31.3296 220.123 31.8255C220.088 31.8534 220.057 31.8791 220.035 31.907C219.892 32.0702 219.892 32.2763 219.857 32.5553" fill="#F7F2E8"/>
<path d="M0.000305176 204.999H345.682C337.397 194.719 328.306 185.507 323.998 183.859C316.249 180.889 301.395 174.951 301.395 174.951C301.395 174.951 293.322 144.513 286.22 138.576C279.112 132.638 262.645 127.813 256.187 126.328C249.73 124.845 238.428 118.905 238.428 118.905L223.895 96.2627C223.895 96.2627 181.917 96.6352 155.438 104.428C128.959 112.22 123.147 120.018 123.147 120.018C123.147 120.018 113.138 145.256 110.554 149.711C107.97 154.166 76.3234 153.423 68.2518 156.761C60.1802 160.104 32.4052 199.447 32.4052 199.447C32.4052 199.447 15.8067 200.803 0.000305176 204.999Z" fill="#F7F2E8"/>
<path fill-rule="evenodd" clip-rule="evenodd" d="M307.786 195.187C328.561 191.986 349.338 187.643 370.113 184.442C376.561 183.449 383.237 182.468 389.529 184.205C394.521 185.584 398.895 188.579 403.539 190.89C413.097 195.646 423.779 197.486 434.289 199.271C445.525 201.18 456.764 203.091 468 204.999H296.932L307.786 195.187Z" fill="#F7F2E8"/>
<path d="M93.226 168.83V178.854H92.218V168.83H93.226ZM96.4613 178.854H95.4953V168.648H96.4613V178.854ZM99.5238 178.854H98.5578V168.648H99.5238V178.854ZM106.338 172.078H107.304V178.854H106.464L106.338 177.706C105.96 178.49 105.022 179.022 103.958 179.022C102.362 179.022 101.494 177.93 101.494 176.278V172.064H102.474V175.97C102.474 177.58 103.188 178.154 104.266 178.154C105.568 178.154 106.338 177.286 106.338 175.676V172.078ZM108.606 176.95H109.53C109.53 177.734 110.118 178.224 111.07 178.224C112.12 178.224 112.736 177.776 112.736 177.048C112.736 176.488 112.456 176.166 111.658 175.97L110.496 175.676C109.32 175.382 108.746 174.766 108.746 173.842C108.746 172.652 109.74 171.896 111.196 171.896C112.624 171.896 113.548 172.68 113.59 173.94H112.652C112.624 173.156 112.078 172.694 111.168 172.694C110.216 172.694 109.684 173.1 109.684 173.828C109.684 174.346 110.048 174.71 110.79 174.892L111.952 175.186C113.128 175.48 113.66 176.026 113.66 177.006C113.66 178.224 112.624 179.022 111.084 179.022C109.558 179.022 108.606 178.21 108.606 176.95ZM116.804 178.854H115.852V172.89H114.494V172.078H115.852V169.936H116.804V172.078H118.162V172.89H116.804V178.854ZM122.962 171.994V172.862H122.43C121.184 172.862 120.386 173.702 120.386 174.99V178.854H119.42V172.078H120.33L120.4 173.128C120.666 172.4 121.38 171.924 122.332 171.924C122.542 171.924 122.724 171.938 122.962 171.994ZM125.919 179.022C124.477 179.022 123.623 178.21 123.623 177.02C123.623 175.774 124.575 174.99 126.157 174.864L128.397 174.682V174.458C128.397 173.128 127.599 172.708 126.605 172.708C125.429 172.708 124.729 173.24 124.729 174.15H123.847C123.847 172.778 124.967 171.896 126.633 171.896C128.201 171.896 129.349 172.68 129.349 174.472V178.854H128.537L128.411 177.664C127.991 178.518 127.067 179.022 125.919 179.022ZM126.143 178.238C127.571 178.238 128.397 177.244 128.397 175.774V175.41L126.395 175.564C125.121 175.676 124.603 176.236 124.603 176.992C124.603 177.818 125.219 178.238 126.143 178.238ZM132.718 178.854H131.766V172.89H130.408V172.078H131.766V169.936H132.718V172.078H134.076V172.89H132.718V178.854ZM135.81 170.216C135.418 170.216 135.096 169.894 135.096 169.502C135.096 169.11 135.418 168.774 135.81 168.774C136.202 168.774 136.538 169.11 136.538 169.502C136.538 169.894 136.202 170.216 135.81 170.216ZM135.334 178.854V172.078H136.3V178.854H135.334ZM137.839 175.466C137.839 173.394 139.295 171.896 141.283 171.896C143.271 171.896 144.727 173.394 144.727 175.466C144.727 177.524 143.271 179.022 141.283 179.022C139.295 179.022 137.839 177.524 137.839 175.466ZM138.819 175.452C138.819 177.048 139.827 178.154 141.283 178.154C142.725 178.154 143.747 177.048 143.747 175.452C143.747 173.884 142.725 172.764 141.283 172.764C139.827 172.764 138.819 173.884 138.819 175.452ZM147.238 178.854H146.272V172.078H147.112L147.252 173.254C147.7 172.386 148.596 171.896 149.576 171.896C151.438 171.896 152.208 173.002 152.208 174.71V178.854H151.242V174.92C151.242 173.338 150.528 172.778 149.408 172.778C148.022 172.778 147.238 173.786 147.238 175.312V178.854ZM153.477 176.95H154.401C154.401 177.734 154.989 178.224 155.941 178.224C156.991 178.224 157.607 177.776 157.607 177.048C157.607 176.488 157.327 176.166 156.529 175.97L155.367 175.676C154.191 175.382 153.617 174.766 153.617 173.842C153.617 172.652 154.611 171.896 156.067 171.896C157.495 171.896 158.419 172.68 158.461 173.94H157.523C157.495 173.156 156.949 172.694 156.039 172.694C155.087 172.694 154.555 173.1 154.555 173.828C154.555 174.346 154.919 174.71 155.661 174.892L156.823 175.186C157.999 175.48 158.531 176.026 158.531 177.006C158.531 178.224 157.495 179.022 155.955 179.022C154.429 179.022 153.477 178.21 153.477 176.95ZM164.97 178.84H164.004V168.648H164.97V173.254C165.404 172.442 166.23 171.896 167.364 171.896C169.142 171.896 169.94 173.002 169.94 174.71V178.854H168.974V174.92C168.974 173.338 168.232 172.778 167.182 172.778C165.726 172.778 164.97 173.856 164.97 175.158V178.84ZM173.811 179.022C172.369 179.022 171.515 178.21 171.515 177.02C171.515 175.774 172.467 174.99 174.049 174.864L176.289 174.682V174.458C176.289 173.128 175.491 172.708 174.497 172.708C173.321 172.708 172.621 173.24 172.621 174.15H171.739C171.739 172.778 172.859 171.896 174.525 171.896C176.093 171.896 177.241 172.68 177.241 174.472V178.854H176.429L176.303 177.664C175.883 178.518 174.959 179.022 173.811 179.022ZM174.035 178.238C175.463 178.238 176.289 177.244 176.289 175.774V175.41L174.287 175.564C173.013 175.676 172.495 176.236 172.495 176.992C172.495 177.818 173.111 178.238 174.035 178.238ZM180.146 178.854H179.18V172.078H180.02L180.16 173.254C180.608 172.386 181.504 171.896 182.484 171.896C184.346 171.896 185.116 173.002 185.116 174.71V178.854H184.15V174.92C184.15 173.338 183.436 172.778 182.316 172.778C180.93 172.778 180.146 173.786 180.146 175.312V178.854ZM189.701 179.022C187.727 179.022 186.565 177.51 186.565 175.48C186.565 173.436 187.727 171.896 189.743 171.896C190.863 171.896 191.759 172.386 192.235 173.366V168.648H193.201V178.854H192.361L192.263 177.468C191.787 178.518 190.835 179.022 189.701 179.022ZM189.869 178.14C191.353 178.14 192.221 177.02 192.221 175.452C192.221 173.898 191.353 172.764 189.869 172.764C188.399 172.764 187.545 173.898 187.545 175.452C187.545 177.02 188.399 178.14 189.869 178.14ZM195.105 175.606V174.738H199.165V175.606H195.105ZM203.729 179.022C201.755 179.022 200.593 177.51 200.593 175.48C200.593 173.436 201.755 171.896 203.771 171.896C204.891 171.896 205.787 172.386 206.263 173.366V168.648H207.229V178.854H206.389L206.291 177.468C205.815 178.518 204.863 179.022 203.729 179.022ZM203.897 178.14C205.381 178.14 206.249 177.02 206.249 175.452C206.249 173.898 205.381 172.764 203.897 172.764C202.427 172.764 201.573 173.898 201.573 175.452C201.573 177.02 202.427 178.14 203.897 178.14ZM212.786 171.994V172.862H212.254C211.008 172.862 210.21 173.702 210.21 174.99V178.854H209.244V172.078H210.154L210.224 173.128C210.49 172.4 211.204 171.924 212.156 171.924C212.366 171.924 212.548 171.938 212.786 171.994ZM215.743 179.022C214.301 179.022 213.447 178.21 213.447 177.02C213.447 175.774 214.399 174.99 215.981 174.864L218.221 174.682V174.458C218.221 173.128 217.423 172.708 216.429 172.708C215.253 172.708 214.553 173.24 214.553 174.15H213.671C213.671 172.778 214.791 171.896 216.457 171.896C218.025 171.896 219.173 172.68 219.173 174.472V178.854H218.361L218.235 177.664C217.815 178.518 216.891 179.022 215.743 179.022ZM215.967 178.238C217.395 178.238 218.221 177.244 218.221 175.774V175.41L216.219 175.564C214.945 175.676 214.427 176.236 214.427 176.992C214.427 177.818 215.043 178.238 215.967 178.238ZM222.334 178.854L220.094 172.078H221.088L222.418 176.166C222.572 176.614 222.698 177.076 222.838 177.622C222.95 177.076 223.174 176.39 223.244 176.166L224.588 172.078H225.582L226.912 176.166C227.038 176.53 227.206 177.118 227.332 177.622C227.472 177.062 227.5 176.894 227.738 176.166L229.082 172.078H230.09L227.794 178.854H226.856L225.456 174.598C225.288 174.094 225.176 173.674 225.092 173.268C224.994 173.632 224.882 174.038 224.7 174.598L223.3 178.854H222.334ZM232.263 178.854H231.297V172.078H232.137L232.277 173.254C232.725 172.386 233.621 171.896 234.601 171.896C236.463 171.896 237.233 173.002 237.233 174.71V178.854H236.267V174.92C236.267 173.338 235.553 172.778 234.433 172.778C233.047 172.778 232.263 173.786 232.263 175.312V178.854ZM243.881 178.854H243.041V168.648H244.007V173.394C244.483 172.4 245.407 171.896 246.555 171.896C248.529 171.896 249.677 173.436 249.677 175.48C249.677 177.51 248.501 179.022 246.527 179.022C245.393 179.022 244.455 178.518 243.979 177.468L243.881 178.854ZM244.021 175.452C244.021 177.02 244.889 178.14 246.373 178.14C247.843 178.14 248.697 177.02 248.697 175.452C248.697 173.898 247.843 172.764 246.373 172.764C244.889 172.764 244.021 173.898 244.021 175.452ZM250.312 181.808V181.01H251.054C251.642 181.01 252.23 180.968 252.566 180.058L252.86 179.26L250.116 172.078H251.138L253.322 177.986L255.464 172.078H256.458L253.35 180.408C252.958 181.472 252.3 181.906 251.334 181.906C250.928 181.906 250.62 181.878 250.312 181.808ZM266.231 172.078H267.197V178.854H266.357L266.231 177.706C265.853 178.49 264.915 179.022 263.851 179.022C262.255 179.022 261.387 177.93 261.387 176.278V172.064H262.367V175.97C262.367 177.58 263.081 178.154 264.159 178.154C265.461 178.154 266.231 177.286 266.231 175.676V172.078ZM268.498 176.95H269.422C269.422 177.734 270.01 178.224 270.962 178.224C272.012 178.224 272.628 177.776 272.628 177.048C272.628 176.488 272.348 176.166 271.55 175.97L270.388 175.676C269.212 175.382 268.638 174.766 268.638 173.842C268.638 172.652 269.632 171.896 271.088 171.896C272.516 171.896 273.44 172.68 273.482 173.94H272.544C272.516 173.156 271.97 172.694 271.06 172.694C270.108 172.694 269.576 173.1 269.576 173.828C269.576 174.346 269.94 174.71 270.682 174.892L271.844 175.186C273.02 175.48 273.552 176.026 273.552 177.006C273.552 178.224 272.516 179.022 270.976 179.022C269.45 179.022 268.498 178.21 268.498 176.95Z" fill="#1D1C18"/>
</svg>
