<?xml version="1.0" encoding="UTF-8"?>
<svg id="Layer_2" data-name="Layer 2" xmlns="http://www.w3.org/2000/svg" viewBox="0 0 1198.56 228.95">
  <defs>
    <style>
      .cls-1 {
        fill: #1d1c18;
        stroke-width: 0px;
      }
    </style>
  </defs>
  <g id="Layer_1-2" data-name="Layer 1">
    <g>
      <path class="cls-1" d="M378.71,110.93c5.62,1.05,11.23,2.24,16.57,4.43,7.43,3.03,13.68,7.57,17.96,14.5,7.11,11.51,5.33,28.26-3.91,38.12-5.52,5.89-12.33,9.56-19.9,11.97-8.56,2.73-17.39,3.88-26.34,3.95-14.58.11-29.15.05-43.73.05-.5,0-1,.02-1.5-.03-1.54-.16-1.8-.43-1.91-2.04-.05-.66-.02-1.33-.02-2,0-43.15,0-86.3,0-129.44q0-4.13,4.11-4.14c15.49.01,30.99-.09,46.48.09,7.86.09,15.59,1.39,22.95,4.36,7.68,3.09,13.97,7.8,17.37,15.61,4.33,9.93,3.15,23.27-5.45,32.09-5.51,5.65-12.17,9.2-19.58,11.55-1.03.33-2.07.62-3.11.93ZM336.01,146.89c0,9.74-.01,19.49,0,29.23,0,2.66.34,2.98,2.99,3.21,7.71.67,15.43,1.19,23.18.51,6.01-.53,11.89-1.59,17.41-4.13,7.7-3.53,12.96-9.21,15-17.59,1.86-7.63,1.6-15.22-.87-22.65-2.68-8.05-7.83-14.02-15.65-17.55-4.31-1.95-8.86-2.92-13.57-2.96-8.49-.07-16.99-.03-25.48-.03-.33,0-.67-.01-1,.02-1.57.13-1.85.4-1.98,1.96-.05.66-.03,1.33-.03,2,0,9.33,0,18.65,0,27.98ZM336.01,80.38c0,9.16-.01,18.33,0,27.49,0,2.79.25,3.05,2.96,3.06,7.58.01,15.16,0,22.74-.03,1.33,0,2.68-.08,3.97-.33,10.19-1.98,16.96-7.98,20.58-17.66,1.89-5.04,2.06-10.27,1.76-15.53-.85-14.86-10.28-25.06-25-26.93-8.29-1.05-16.64-.29-24.96-.44-1.68-.03-1.93.35-2.04,2.13-.04.66-.02,1.33-.02,2,0,8.75,0,17.49,0,26.24Z"/>
      <path class="cls-1" d="M160.49,114.89c0-21.5,0-43,0-64.5q0-4.09,4.16-4.09c12.08.01,24.17-.12,36.25.11,9.28.17,18.43,1.45,27.21,4.7,3.77,1.4,7.35,3.15,10.58,5.57,5.09,3.83,8.74,8.69,10.37,14.89,2.24,8.52,1.82,16.84-2.4,24.74-2.73,5.11-6.75,9.06-11.49,12.3-4.56,3.12-9.52,5.5-14.64,7.52-2.58,1.02-3.19.49-1.08,3.67,3.14,4.72,6.34,9.39,9.52,14.08,7.38,10.9,14.76,21.8,22.15,32.7,3.04,4.48,6.08,8.97,9.11,13.45.37.55.76,1.1,1.1,1.67.98,1.66.73,2.2-1.28,2.21-6.33.05-12.67,0-19,.03-1.34,0-2.13-.68-2.8-1.74-4.53-7.09-9.09-14.17-13.62-21.25-6.2-9.68-12.39-19.37-18.59-29.05-1.12-1.75-2.22-3.52-3.36-5.27-1.91-2.94-4.65-4.51-8.14-4.59-3.91-.09-7.83-.07-11.75-.03-1.89.02-2.12.31-2.21,2.21-.04.75-.01,1.5-.01,2.25,0,17.75,0,35.5,0,53.25q0,4.21-4.12,4.22c-4,0-8,0-12,0q-3.94,0-3.94-4.07c0-17.83,0-35.66,0-53.5,0-3.83,0-7.67,0-11.5ZM180.55,83.62c0,10.16,0,20.31,0,30.47,0,3.07.05,3.27,3.15,3.52,4.72.38,9.45.84,14.2.68,13.44-.46,23-6.87,28.8-18.92,3.51-7.3,3.89-15.08,3.11-22.97-.29-2.98-1.14-5.88-2.37-8.64-3.72-8.33-10.23-13.28-18.84-15.84-8.63-2.56-17.48-1.87-26.29-1.92-1.11,0-1.71.53-1.74,1.65-.02.75-.04,1.5-.04,2.25,0,9.91,0,19.81,0,29.72Z"/>
      <path class="cls-1" d="M1198.22,145.48c0,6.92-.07,13.83.04,20.75.03,1.98-.62,3.28-2.23,4.37-11.02,7.41-22.99,12.36-36.14,14.41-7.45,1.16-14.95,1.36-22.43.89-14.02-.88-27.26-4.5-39.01-12.54-10.57-7.23-18.04-16.92-22.49-28.91-4.21-11.35-5.55-23.09-4.59-35.13.67-8.37,2.4-16.46,5.73-24.2,6.45-15,17-26.11,31.6-33.37,8.92-4.44,18.42-6.67,28.32-7.53,11.95-1.04,23.43.78,34.49,5.26,8.2,3.32,15.47,8.11,21.73,14.39.35.35.69.72,1.04,1.08.86.88.88,1.7-.04,2.58-1.1,1.04-2.31,1.9-3.63,2.64-11.42,6.38-24.01.66-28.82-7.73-1.95-3.4-3.98-6.72-6.86-9.47-3.49-3.33-7.57-4.97-12.38-5.08-12.8-.31-23.65,4.12-32.47,13.38-5.18,5.44-8.81,11.89-11.45,18.9-3.41,9.05-5.12,18.45-5.5,28.08-.33,8.5-.2,16.99,1.51,25.38,2.75,13.51,7.83,25.86,18.04,35.51,8.76,8.29,19.23,12.58,31.39,12.81,10.04.19,19.53-1.79,28.48-6.32,1.63-.83,3.16-1.86,4.76-2.75,1.93-1.07,2.73-2.54,2.71-4.86-.11-13.08-.05-26.16-.05-39.24,0-.08,0-.17,0-.25-.03-3.01-.12-3.13-3.07-3.13-8.08-.01-16.16,0-24.24,0-.75,0-1.5.02-2.25-.05-1.56-.15-2.98-1.45-3.32-2.95-.14-.61.09-.99.69-1.07.58-.07,1.16-.08,1.74-.08,15.16,0,30.33,0,45.49,0,.33,0,.67,0,1,.01,1.85.12,2.11.36,2.2,2.25.05.91.02,1.83.02,2.75,0,6.42,0,12.83,0,19.25Z"/>
      <path class="cls-1" d="M94.07,96.2c0-15.08,0-30.17,0-45.25,0-.75-.02-1.5.02-2.25.13-2.07,1.11-2.77,3.15-2.34.73.15,1.24.51,1.31,1.29.07.74.09,1.5.09,2.24,0,29.5.03,59-.02,88.5-.01,8.15-1.28,16.08-4.53,23.64-4.09,9.53-10.94,16.14-20.49,20.1-5.22,2.17-10.68,3.31-16.26,3.69-8.67.59-17.33.44-25.8-1.9-10.36-2.87-18.81-8.37-24.48-17.72-3.88-6.4-5.66-13.47-6.59-20.81C.05,141.92,0,138.43,0,134.93c.01-28.17,0-56.33,0-84.5q0-4.13,4.13-4.13c4.33,0,8.67-.02,13,.01,2.55.02,2.83.34,2.91,2.91.02.83,0,1.67,0,2.5,0,29.08-.01,58.16.05,87.25.02,7.47,1.22,14.75,4.26,21.67,3.98,9.06,10.69,14.99,20.21,17.54,8.98,2.41,17.98,2.27,26.84-.69,9.3-3.1,15.51-9.5,19.1-18.49,2.56-6.42,3.59-13.15,3.58-20.05-.03-14.25,0-28.5,0-42.75Z"/>
      <path class="cls-1" d="M568.56,183.95c-2.58,0-5.17-.08-7.75.03-1.86.08-2.85-.64-3.54-2.39-3.87-9.85-7.84-19.65-11.78-29.47-1.46-3.63-2.96-7.25-4.35-10.91-.62-1.63-1.61-2.28-3.38-2.28-16.08.05-32.16.04-48.24,0-1.57,0-2.41.59-2.99,2.02-2.91,7.18-5.9,14.32-8.85,21.49-2.57,6.24-5.13,12.48-7.72,18.72-.37.9-.59,2.04-1.78,2.22-1.21.19-2.66.61-3.59-.31-.93-.91.1-2.04.49-2.97,7.84-18.94,15.76-37.84,23.56-56.78,9.42-22.88,18.74-45.8,28.11-68.7,1.14-2.78,2.27-5.55,3.42-8.32.29-.69.56-1.4.96-2.03.61-.96,1.27-.93,1.91.06.36.56.61,1.19.86,1.8,8.38,20.6,16.76,41.21,25.15,61.81,5.88,14.43,11.78,28.84,17.66,43.27,3.99,9.8,7.95,19.61,11.92,29.42.19.46.4.92.54,1.4.42,1.4.18,1.86-1.33,1.9-3.08.08-6.17.02-9.25.02v.02ZM513.73,74.16c-.73.52-.79,1.42-1.09,2.16-6.66,16.35-13.3,32.71-19.93,49.07-1.03,2.55-2.03,5.11-2.98,7.69-.5,1.36-.3,1.59,1.12,1.73.25.02.5.02.75.02,14.83,0,29.65,0,44.48,0,2.33,0,2.43-.2,1.51-2.49-1.89-4.71-3.82-9.42-5.72-14.13-5.8-14.36-11.59-28.73-17.38-43.09-.15-.37-.23-.81-.75-.94Z"/>
      <path class="cls-1" d="M639.94,67.15c-.51,1.66-.35,2.75-.35,3.82,0,35.91,0,71.81,0,107.72,0,.83.03,1.67-.02,2.5-.11,2-.65,2.43-2.65,2.33-1.24-.06-1.83-.64-1.86-1.85-.02-.92-.03-1.83-.03-2.75,0-38.32-.02-76.64.03-114.97,0-2.62-.49-4.82-2.2-6.91-2.16-2.64-4.04-5.51-5.96-8.33-1.2-1.75-.89-2.37,1.21-2.39,6.41-.05,12.83,0,19.24-.03,1.3,0,2.22.49,2.94,1.53,1.04,1.51,2.14,2.97,3.2,4.47,13.62,19.24,27.23,38.48,40.86,57.72,7.22,10.2,14.45,20.39,21.68,30.58,1.57,2.21,1.57,2.22-.62,3.95-3.33,2.63-6.66,5.27-9.99,7.91-2.35,1.86-2.38,1.89-4.2-.63-5.38-7.42-10.73-14.85-16.09-22.28-13.85-19.18-27.69-38.36-41.54-57.54-1.1-1.53-2.26-3.01-3.65-4.85Z"/>
      <path class="cls-1" d="M993.5,115.16c0-21.33,0-42.65,0-63.98,0-.42,0-.83,0-1.25.02-3.6.03-3.63,3.62-3.63,4.42,0,8.83-.02,13.25,0,2.84.01,3.08.28,3.14,3.18.01.5,0,1,0,1.5,0,42.73,0,85.47,0,128.2,0,5.28-.18,4.74-4.83,4.76-3.92.01-7.83.01-11.75,0-3.36-.01-3.44-.09-3.44-3.56,0-18.66,0-37.32,0-55.98v-9.25Z"/>
      <path class="cls-1" d="M862.6,130.39c0-16.33.04-32.66-.04-49-.01-2.47.66-4.16,2.72-5.7,5-3.74,9.8-7.75,14.68-11.65.46-.36.89-.77,1.39-1.06.67-.39,1.16-.12,1.24.63.09.83.08,1.66.08,2.5,0,13.75,0,27.5,0,41.25,0,.58,0,1.17,0,1.75.02,3.22.04,3.26,3.17,3.26,7,.01,14,0,21,0,3.25,0,6.5-.03,9.75.02,1.82.03,2.31.47,2.43,1.83.13,1.5-.39,2.13-1.93,2.25-.66.05-1.33.03-2,.03-9.5,0-19,0-28.5,0-.67,0-1.34-.03-2,.02-1.6.11-1.81.32-1.91,1.96-.04.75-.02,1.5-.02,2.25,0,19.75,0,39.5,0,59.24q0,3.96-4.04,3.97c-4.33,0-8.67.02-13,0-2.67-.02-3.01-.34-3.01-3.06-.03-8.25-.01-16.5-.01-24.75,0-8.58,0-17.17,0-25.75Z"/>
      <path class="cls-1" d="M644.03,227.57c-.68-.2-.73-.64-.43-.99.47-.57,1.02-1.1,1.61-1.56,13.02-10.4,26.05-20.78,39.07-31.18,13.28-10.6,26.56-21.21,39.84-31.82,9.37-7.49,18.76-14.96,28.13-22.45,15.49-12.37,30.98-24.75,46.48-37.12,15.23-12.16,30.47-24.33,45.7-36.49,18.75-14.97,37.5-29.94,56.25-44.91,8.27-6.6,16.54-13.2,24.83-19.77.72-.57,1.74-1.86,2.45-1,.8.96-.73,1.57-1.43,2.14-13.72,10.99-27.46,21.96-41.2,32.91-13.22,10.54-26.48,21.05-39.69,31.6-13.28,10.6-26.52,21.26-39.79,31.87-11.13,8.89-22.3,17.74-33.43,26.62-15.11,12.05-30.2,24.12-45.31,36.18-18.49,14.76-36.99,29.52-55.48,44.28-8.14,6.5-16.26,13.01-24.4,19.51-.78.62-1.58,1.22-2.4,1.8-.26.18-.59.27-.8.36Z"/>
      <path class="cls-1" d="M920.82,46.3c5.41,0,10.82-.02,16.22,0,2.65.01,2.99.36,3.02,3.06.06,6.32.07,12.65.08,18.97,0,1.05.17,2.23-1.33,2.57-1.71.39-3.23-.05-3.93-1.32-.88-1.6-1.59-3.29-2.59-4.84-3.77-5.85-9.08-9.61-15.66-11.68-5.12-1.61-10.39-2.23-15.71-2.58-.25-.02-.5,0-.75-.03-.63-.07-1.48.15-1.67-.7-.14-.64.56-.94.97-1.34,1.65-1.56,3.54-2.23,5.87-2.17,5.15.14,10.32.04,15.47.04Z"/>
      <path class="cls-1" d="M723.6,91.63c0-13.57,0-27.14,0-40.71,0-.75-.02-1.5.03-2.25.14-2.13,1.02-2.77,3.11-2.39.88.16,1.32.64,1.39,1.49.04.58.06,1.16.06,1.75,0,27.39-.03,54.77.05,82.16,0,2.37-1.12,3.71-2.85,4.85-1.05.69-1.54.49-1.7-.7-.11-.82-.08-1.66-.08-2.49,0-13.9,0-27.8,0-41.7Z"/>
      <path class="cls-1" d="M768.46,198.2c.17-.48.56-.65.98-.67,3.58-.18,7.16-.18,10.73,0,.41.02.81.19.97.77-.63.84-1.62.52-2.47.61-1.66.18-1.95.35-1.98,1.92-.06,3.08,0,6.16-.01,9.25,0,1.27.67,1.8,1.87,1.8,4,0,8,.04,11.99-.02,1.56-.02,1.88-.38,1.91-1.98.06-3,.06-6,0-9-.03-1.61-.31-1.78-1.94-1.96-.85-.09-1.83.23-2.56-.62.53-1.03,1.45-.88,2.21-.84,3.5.15,7.06-.47,10.76.44-.83,1.25-1.81.94-2.66,1.02-1.87.17-2.14.37-2.16,2.28-.05,4.66-.02,9.33-.02,13.99,0,3-.02,6,0,9,.03,2.44.14,2.53,2.47,2.76.25.02.51,0,.75.05.53.12,1.33.02,1.29.82-.03.61-.73.6-1.21.6-3.41.02-6.83.01-10.24,0-.48,0-1.1-.06-1.07-.73.02-.48.55-.55.95-.65,1.02-.25,2.32.31,3.05-.69.79-1.07.37-2.42.4-3.65.05-2.33.05-4.67,0-7-.04-1.94-.3-2.24-2.14-2.27-3.83-.06-7.66-.05-11.49,0-1.85.03-2.12.33-2.15,2.25-.05,3-.05,6,0,9,.03,1.92.23,2.05,2.17,2.27.79.09,2.15-.16,2.13.71-.02,1.21-1.41.75-2.21.77-2.66.07-5.33.03-8,.02-.58,0-1.16-.06-1.74-.14-.24-.03-.48-.17-.52-.46-.06-.42.22-.62.55-.68.57-.11,1.15-.16,1.73-.22,2.02-.21,2.22-.38,2.26-2.47.05-2.33.02-4.66.02-7,0-5.25.02-10.5,0-15.74-.01-2.55-.13-2.62-2.65-2.83-.7-.06-1.54.2-1.94-.69Z"/>
      <path class="cls-1" d="M1154.51,227.71c-.44.86-1.18.71-1.8.72-3.08.03-6.16.02-9.25,0-.41,0-.84-.04-1.23-.14-.2-.05-.46-.26-.51-.46-.11-.4.21-.61.54-.67.65-.11,1.31-.21,1.98-.24,1.24-.06,1.8-.71,1.8-1.91,0-3.25,0-6.5,0-9.75,0-1.22-.61-1.85-1.84-1.85-4.08,0-8.16,0-12.25,0-1.11,0-1.7.55-1.7,1.68,0,3.33,0,6.66,0,10,0,1.26.63,1.82,1.85,1.82.17,0,.34,0,.5.02.75.14,2-.22,1.97.87-.02.85-1.21.6-1.91.61-3.17.02-6.33,0-9.5-.02-.48,0-1.1-.05-1.07-.73.02-.48.54-.57.95-.64.24-.04.5-.05.74-.08,3.14-.29,3.15-.29,3.15-3.32,0-7.16,0-14.33,0-21.49,0-.42.02-.83-.01-1.25-.12-1.62-.33-1.81-1.93-1.99-1.01-.11-2.16.36-2.97-.58.11-.48.37-.71.71-.74,3.66-.34,7.32-.13,10.98-.13.51,0,.97.14,1.35.65-.61,1.02-1.6.72-2.44.79-2.05.17-2.32.38-2.36,2.37-.05,2.83-.05,5.67,0,8.5.03,1.79.29,2.07,2.04,2.09,3.91.05,7.83.05,11.75,0,1.59-.02,1.95-.38,1.99-1.93.07-3,.07-6,0-9-.03-1.61-.34-1.83-1.91-2.01-.86-.1-1.83.17-2.49-.55.04-.54.3-.76.64-.79,3.66-.32,7.32-.13,10.98-.11.49,0,1.01.07,1.29.74-.67.99-1.75.61-2.67.69-1.91.17-2.17.33-2.18,2.24-.03,7.83-.03,15.66,0,23.49,0,1.93.26,2.11,2.14,2.3.93.09,1.98-.16,2.69.77Z"/>
      <path class="cls-1" d="M1009.53,213.93c2.59,1.73,3.17,4.26,3.15,7.04,0,1.58.03,3.16.47,4.71.3,1.07.9,1.83,2.07,1.81,1.13-.01,1.89-.7,2.15-1.76.28-1.13.39-2.29.58-3.44.1-.62-.15-1.35.56-1.79,1.19,2.1.52,6.35-1.2,7.66-2.13,1.64-6.21.45-7.47-2.2-.58-1.22-.78-2.54-.8-3.88-.02-1.5.01-3-.11-4.49-.16-1.93-1.05-2.92-2.99-3.05-2.57-.16-5.16-.09-7.74-.09-1.13,0-1.65.68-1.65,1.76-.02,2.91-.01,5.83-.02,8.74,0,1.34.68,1.98,2.01,1.97.17,0,.34,0,.5.02.75.14,2.05-.21,1.97.86-.08.96-1.37.61-2.14.62-2.91.04-5.83.02-8.74.01-.42,0-.83,0-1.25-.06-.42-.05-.85-.19-.79-.74.04-.39.42-.52.74-.56.66-.09,1.33-.1,1.99-.15,1.76-.15,2.03-.38,2.09-2.09.06-1.66.02-3.33.02-5,0-6,.01-11.99,0-17.99,0-2.78-.05-2.79-2.73-2.96-.72-.05-1.52.16-2.06-.56-.06-.75.54-.83.98-.83,5.99,0,11.98-.45,17.96.29.58.07,1.14.22,1.71.38,5.88,1.59,6.7,6.42,5.44,10.77-.45,1.57-1.51,2.75-2.91,3.62-.56.34-1.26.47-1.79,1.36ZM996.53,205.84c0,1.58-.04,3.15.01,4.73.07,1.97.37,2.27,2.39,2.31,1.99.04,3.99.05,5.97-.09,4.16-.29,5.92-2.18,6.09-6.35.02-.58.02-1.16-.03-1.74-.29-3.48-2-5.36-5.45-5.66-2.31-.2-4.64-.16-6.96-.1-1.63.04-1.93.41-2,2.17-.06,1.57-.01,3.15-.02,4.73Z"/>
      <path class="cls-1" d="M740.12,227.6c-.68.98-1.4.82-2.03.83-3.08.02-6.16.01-9.25,0-.33,0-.67-.01-1-.06-.42-.05-.87-.19-.85-.7.01-.36.39-.53.72-.58.66-.09,1.32-.16,1.99-.18,1.23-.04,1.83-.66,1.83-1.88,0-1.25.02-2.5.03-3.75,0-6.33,0-12.66,0-18.99,0-3.15-.02-3.15-3.07-3.42-.56-.05-1.2.06-1.51-.63.16-.77.83-.78,1.36-.78,5.82.04,11.67-.49,17.46.33,5.96.84,8.75,5.05,7.47,10.92-.64,2.91-2.44,4.65-5.15,5.58-2.48.85-5.07.9-7.64,1.05-1.16.07-2.33.02-3.5.04-1.06.01-1.77.45-1.78,1.62-.01,2.75,0,5.5,0,8.24,0,1.15.67,1.61,1.75,1.66,1.04.05,2.14-.08,3.18.68ZM740.65,198.86s0,.06,0,.09c-1.33,0-2.66-.02-3.99,0-.88.02-1.43.5-1.44,1.39-.03,3.99-.03,7.98-.01,11.97,0,1.01.59,1.53,1.58,1.53,2.99.02,5.98.27,8.93-.52,2.18-.59,3.39-1.99,3.73-4.18.24-1.57.21-3.15.11-4.73-.19-3.03-1.9-4.92-4.92-5.35-1.31-.19-2.65-.14-3.98-.21Z"/>
      <path class="cls-1" d="M1085.1,212.89c0-3.67.02-7.33,0-11-.02-2.75-.04-2.75-2.74-3-.41-.04-.83-.06-1.23-.18-.2-.06-.46-.28-.5-.47-.08-.39.25-.56.57-.65.24-.07.49-.13.73-.13,5.91.09,11.83-.42,17.72.37,1.17.16,2.28.5,3.33,1.01.52.25,1.06.53,1.49.9,2.66,2.26,2.98,5.29,2.54,8.45-.4,2.86-2.02,4.91-4.76,5.92-2.94,1.08-6.01,1.26-9.11,1.26-4.89,0-4.42-.18-4.44,4.5,0,1.42-.01,2.83,0,4.25.03,2.58.11,2.65,2.62,2.83.58.04,1.16.1,1.72.23.2.04.46.28.5.48.08.37-.19.61-.55.67-.41.07-.83.12-1.24.12-3.17,0-6.33,0-9.5,0-.25,0-.5,0-.75-.04-.41-.05-.9-.09-.96-.6-.05-.52.42-.67.82-.73.49-.08.99-.08,1.49-.13,1.87-.19,2.16-.42,2.19-2.29.06-3.16.02-6.33.03-9.5,0-.75,0-1.5,0-2.25ZM1088.72,206.45c0,1.83-.05,3.66.02,5.49.06,1.6.32,1.86,1.95,1.92,1.66.07,3.33.03,4.99,0,6.02-.14,8.09-2.38,7.73-8.93-.02-.41-.11-.83-.21-1.23-.73-2.92-2.38-4.46-5.4-4.67-2.4-.17-4.82-.14-7.23-.09-1.54.04-1.79.35-1.84,2.02-.06,1.83-.01,3.66-.01,5.49Z"/>
      <path class="cls-1" d="M816.55,213.09c-.07-4.67,1.26-8.72,4.56-12.26,4.72-5.07,16.11-5.1,20.75,1.86,2.17,3.26,3.14,6.81,3.05,10.62-.05,2.31-.32,4.63-1.19,6.86-2.82,7.28-9.73,9.45-15.27,8.57-6.95-1.1-11.26-5.98-11.89-13.4-.06-.74,0-1.5,0-2.25ZM841.03,213.64c0-4.93-.61-7.72-2.15-10.55-1.52-2.79-3.91-4.26-7-4.58-5.06-.53-8.6,1.71-10.36,6.68-1.83,5.18-1.83,10.47-.1,15.68,1.45,4.38,4.68,6.83,9.17,6.73,4.71-.1,7.38-1.76,9.28-6.55,1-2.51,1.27-5.16,1.16-7.42Z"/>
      <path class="cls-1" d="M899.98,213.22c-.22-3.23.3-6.32,1.94-9.15,3.13-5.37,7.93-7.36,13.94-6.77,5.58.54,9.18,3.82,11.14,8.8,1.83,4.65,1.81,9.55-.03,14.19-3.41,8.6-12.27,10.04-18.47,7.62-5.41-2.11-7.85-6.42-8.51-11.94-.11-.9-.02-1.83-.02-2.75ZM903.62,213.17c-.07,3.45.33,6.82,2.09,9.88,1.85,3.2,4.81,4.58,8.33,4.56,3.64-.01,6.56-1.53,8.38-4.89,1.23-2.26,1.68-4.69,1.89-7.18.36-4.28,0-8.47-2.1-12.35-1.82-3.34-4.67-4.82-8.41-4.74-3.73.08-6.53,1.65-8.25,5.03-1.55,3.05-2.02,6.31-1.93,9.68Z"/>
      <path class="cls-1" d="M1053.12,227.61c.98-.93,2.27-.57,3.44-.68,1.49-.14,1.67-.32,1.17-1.67-.75-2.03-1.6-4.02-2.41-6.03-.35-.87-1.01-1.29-1.94-1.3-3.33,0-6.66,0-9.99-.01-1.05,0-1.71.49-2.1,1.45-.82,2.01-1.7,3.98-2.46,6.01-.44,1.17-.21,1.43,1.11,1.54.99.09,2.01-.08,2.97.27.21.08.47.29.5.48.06.37-.22.63-.58.65-1.08.07-2.16.12-3.24.12-2.08,0-4.16-.02-6.24-.07-.41,0-.86-.18-.8-.72.04-.39.43-.47.74-.57.16-.05.33-.11.49-.08,2.7.44,3.57-1.37,4.39-3.42,3.17-7.88,6.39-15.74,9.63-23.59.38-.93.41-2.44,1.78-2.38,1.15.05,1.25,1.41,1.62,2.3,3.41,8.23,6.83,16.46,10.16,24.73.65,1.62,1.52,2.49,3.31,2.34.48-.04.99.1,1.46.24.19.06.41.35.41.54,0,.18-.23.45-.43.53-.3.12-.65.16-.98.16-3.58,0-7.16,0-10.74-.02-.48,0-1.03-.02-1.28-.8ZM1048.12,202.68c-1.76,4.3-3.36,8.19-4.96,12.09-.44,1.06-.03,1.6,1.08,1.61,2.65.02,5.31.06,7.96,0,1.53-.04,1.72-.38,1.13-1.89-1.05-2.7-2.15-5.39-3.29-8.06-.48-1.12-.74-2.37-1.92-3.74Z"/>
      <path class="cls-1" d="M967.51,200.66c.77-.66.11-1.64.86-2.12.79.9.84.9.77,5.23-.03,1.85.38,3.75-.35,5.56-.85-.12-.78-.68-.81-1.15-.08-1.08-.06-2.17-.21-3.23-.38-2.83-2.08-4.66-4.66-5.69-6.43-2.57-12.63.55-14.44,7.23-1.2,4.43-1.2,8.89-.09,13.33,1.89,7.55,8.52,8.79,14.12,6.83,3.39-1.19,5.84-6.1,5.22-9.69-.2-1.15-.91-1.44-1.92-1.54-1.01-.1-2.18.34-2.96-.68.19-.55.58-.72,1-.73,3.08-.12,6.15-.2,9.22.05.34.03.61.24.72.72-.62.86-1.6.55-2.46.64-1.97.18-2.27.44-2.32,2.45-.05,2.25,0,4.49-.03,6.74,0,.79.15,1.63-.43,2.36-1.21-.47-.42-1.74-1.21-2.46-1.61,2.05-3.59,3.42-6.13,3.99-7.76,1.72-14.95-2.58-16.83-10.29-1.11-4.56-1.01-9.1,1.2-13.38,2.45-4.76,6.39-7.27,11.77-7.56,3.81-.21,7.28.49,9.96,3.4Z"/>
      <path class="cls-1" d="M1184.04,212.82c2.89-4.32,5.82-8.78,8.57-13.49-1.35-.68-2.56-.26-3.67-.51-.33-.08-.7-.16-.75-.54-.09-.57.4-.71.78-.74,2.91-.17,5.82-.19,8.73.01.4.03.89.18.85.7-.04.52-.54.57-.95.61-.5.05-1,.07-1.5.07-1.11-.01-1.89.49-2.47,1.41-2.8,4.44-5.61,8.87-8.41,13.31-.5.8-.71,1.68-.71,2.62,0,2.75-.05,5.5,0,8.25.04,2.03.28,2.22,2.32,2.43.79.08,2.15-.16,2.13.71-.02,1.21-1.41.75-2.21.77-2.83.07-5.66.03-8.5.02-.42,0-.83,0-1.25-.05-.41-.04-.9-.09-.95-.6-.05-.52.42-.68.83-.73.74-.09,1.49-.12,2.24-.15,1.07-.04,1.76-.48,1.76-1.64,0-3.08,0-6.16-.01-9.25,0-.69-.35-1.27-.69-1.85-2.6-4.46-5.22-8.91-7.78-13.39-.73-1.28-1.68-2.02-3.21-1.89-.41.03-.83-.02-1.24-.08-.42-.06-.86-.21-.8-.74.04-.38.44-.52.76-.54,1.25-.07,2.49-.11,3.74-.11,2.42,0,4.83.01,7.25.07.46,0,1.1.07,1.05.75-.03.5-.57.52-.97.6-.16.03-.33.03-.5.04-3.07.31-3.1.39-1.48,3.13,1.95,3.3,3.89,6.6,5.83,9.9.21.35.36.77,1.19.9Z"/>
      <path class="cls-1" d="M878.69,227.74c-.25.72-.89.67-1.45.68-3.33.02-6.66.02-9.99,0-.41,0-.82-.1-1.22-.21-.13-.03-.26-.22-.3-.36-.08-.26.04-.47.29-.59.7-.34,1.46-.27,2.2-.34,2.03-.17,2.23-.35,2.26-2.43.05-2.83.02-5.66.02-8.49,0-4.83.02-9.66-.01-14.49-.02-2.35-.22-2.52-2.6-2.57-1.33-.03-2.67-.05-4,.02-1.77.09-2.19.49-2.32,2.25-.09,1.33-.04,2.66-.1,3.99-.02.47-.07,1.02-.75,1.13-.74-.37-.63-1.1-.64-1.74-.04-1.33-.05-2.67-.01-4,.07-2.6.53-3.08,3.06-3.16,1.58-.05,3.16-.02,4.75-.02,4.33,0,8.66-.02,12.99,0,3.3.02,3.67.42,3.7,3.8.01,1.25.01,2.5-.04,3.75-.02.54.03,1.34-.77,1.3-.58-.02-.61-.72-.63-1.2-.05-1.16,0-2.33-.07-3.5-.11-2.19-.49-2.56-2.73-2.62-1.5-.04-3,0-4.5.01-1.11,0-1.69.56-1.72,1.68,0,.42-.03.83-.03,1.25,0,7.33,0,14.66,0,21.98,0,.25,0,.5,0,.75.11,1.9.3,2.1,2.17,2.3q1.36.14,2.43.81Z"/>
    </g>
  </g>
</svg>