<svg width="975" height="111" viewBox="0 0 975 111" fill="none" xmlns="http://www.w3.org/2000/svg">
<path d="M147.974 90.1366V108.75H124.545C111.4 108.75 100.756 99.4695 100.756 88.0302V2.00096H124.186V83.0562C124.186 86.9666 127.825 90.1366 132.315 90.1366H147.986H147.974Z" fill="#1D1C18"/>
<path d="M228.665 41.0947C222.476 34.129 212.144 30.6982 197.694 30.6982C183.244 30.6982 172.912 34.1394 166.722 41.0947C160.533 48.0501 157.48 57.8313 157.48 70.5011C157.48 97.2484 170.853 110.617 197.706 110.617C224.559 110.617 238.016 97.2484 238.016 70.5011C238.016 57.8313 234.879 48.0605 228.677 41.0947H228.665ZM210.624 87.707C208.205 91.3775 203.895 93.1815 197.694 93.1815C191.492 93.1815 187.194 91.388 184.86 87.707C182.43 84.0259 181.268 78.3219 181.268 70.5011C181.268 62.6803 182.43 56.9763 184.86 53.3787C187.194 49.8541 191.504 48.0605 197.694 48.0605C203.883 48.0605 208.193 49.8541 210.624 53.3787C212.958 56.9763 214.119 62.6803 214.119 70.5011C214.119 78.3219 212.958 84.0259 210.624 87.707Z" fill="#1D1C18"/>
<path d="M340.053 32.4816L329.362 91.3674H325.148L311.847 33.9415H289.447L307.297 108.74H346.53L363.111 32.4712H340.041L340.053 32.4816ZM246.683 32.4816L263.432 108.75H286.753L269.825 32.4816H246.671H246.683Z" fill="#1D1C18"/>
<path d="M482.627 39.6871C478.138 33.6702 470.057 30.6983 458.384 30.6983C451.739 30.6983 444.472 32.7317 436.571 36.7986V32.5023H413.225V108.75H436.75V51.7416L438.81 51.1159C443.203 49.7082 447.872 48.9991 452.637 48.9991C457.929 48.9991 461.437 50.4798 463.137 53.6082C464.933 56.7365 465.747 61.5124 465.747 67.9985V108.75H489.272V67.4563C489.272 54.9429 487.033 45.6413 482.627 39.6975V39.6871Z" fill="#1D1C18"/>
<path d="M512.88 5.03568L504.62 42.7321H522.662L537.567 5.03568H512.88Z" fill="#1D1C18"/>
<path d="M614.919 71.5125H625.777V91.6903L611.231 92.3159C600.636 92.3159 593.633 89.8863 590.221 85.1208C586.808 80.3448 585.192 71.9818 585.192 60.0211C585.192 48.0604 586.006 39.6035 587.706 34.6816C589.406 29.7596 592.016 26.3915 595.692 24.5979C599.283 22.7209 605.569 21.7824 614.452 21.7824C623.335 21.7824 634.924 22.481 648.931 23.8158L649.554 7.47545L643.268 6.38053C630.698 4.26369 618.941 3.1792 608.071 3.1792C590.652 3.1792 578.356 7.40245 571.173 15.6925C563.906 24.0556 560.314 37.6639 560.314 56.4339C560.314 75.2039 563.726 88.9686 570.73 97.6445C577.638 106.247 590.388 110.627 608.981 110.627C619.396 110.627 632.865 109.459 649.566 107.103V53.2222H614.907V71.5229L614.919 71.5125Z" fill="#1D1C18"/>
<path d="M719.877 29.5931V49.1453H707.737C699.021 49.1453 691.946 57.4145 691.946 65.0163V108.74H668.517V63.8484C668.517 45.4747 685.038 29.6766 706.133 29.5931H719.877Z" fill="#1D1C18"/>
<path d="M798.617 41.0947C792.427 34.129 782.095 30.6982 767.645 30.6982C753.195 30.6982 742.863 34.1394 736.673 41.0947C730.484 48.0501 727.335 57.8313 727.335 70.5011C727.335 97.2484 740.804 110.617 767.645 110.617C794.486 110.617 807.955 97.2484 807.955 70.5011C807.955 57.8313 804.818 48.0605 798.617 41.0947ZM780.479 87.707C778.144 91.3775 773.835 93.1815 767.645 93.1815C761.455 93.1815 757.146 91.388 754.811 87.707C752.381 84.0259 751.219 78.3219 751.219 70.5011C751.219 62.6803 752.381 56.9763 754.811 53.3787C757.146 49.8541 761.455 48.0605 767.645 48.0605C773.835 48.0605 778.144 49.8541 780.479 53.3787C782.909 56.9763 784.071 62.6803 784.071 70.5011C784.071 78.3219 782.909 84.0259 780.479 87.707Z" fill="#1D1C18"/>
<path d="M80.3561 3.66934V25.2549C68.5038 21.9701 54.9515 20.4059 40.9443 20.8022C25.68 21.188 11.4093 23.9305 0 28.3102V6.08859C12.1157 2.57442 25.7638 0.384585 40.2259 0.0717509C54.317 -0.324505 67.8813 0.92683 80.3561 3.66934Z" fill="#1D1C18"/>
<path d="M41.7464 41.1986C55.574 40.8127 68.863 42.6793 80.3561 46.2769V69.0303C70.3954 64.1814 56.9269 61.5953 42.4647 61.9082C36.0956 61.9916 29.9899 62.7632 24.4229 64.098V108.719H0V50.2603C11.3973 44.8692 25.9433 41.574 41.7464 41.1881V41.1986Z" fill="#1D1C18"/>
<path d="M910.028 32.4816L899.337 91.3673H895.123L881.822 33.9415H859.422L877.273 108.74H916.505L933.086 32.4712H910.016L910.028 32.4816ZM816.658 32.4816L833.407 108.75H856.729L839.8 32.4816H816.646H816.658Z" fill="#1D1C18"/>
<path d="M948.278 34.5454H943.825V32.4807H955.533V34.5454H951.08V45.3694H948.278V34.5454ZM958.371 32.4807H962.645L966.631 42.3662H966.739L970.726 32.4807H975V45.3694H972.198V34.6079H972.127L967.817 45.3694H965.554L961.244 34.6079H961.172V45.3694H958.371V32.4807Z" fill="#1D1C18"/>
</svg>
