<svg width="76" height="54" viewBox="0 0 76 54" fill="none" xmlns="http://www.w3.org/2000/svg">
<g clip-path="url(#clip0_1470_2471)">
<path d="M0.429474 30.1421C1.5538 29.8478 4.35832 33.7087 9.19675 32.9642C14.0352 32.237 22.2845 31.96 25.6702 32.1505C26.6176 32.2024 27.2998 32.2543 27.8304 32.289C27.982 32.289 28.121 32.289 28.2473 32.3063C28.9926 32.3409 29.3464 32.2543 29.7127 31.8734C29.7127 31.8734 29.738 31.8561 29.7506 31.8388C29.8011 31.7869 29.8517 31.7349 29.9022 31.683C29.9148 31.6657 29.9275 31.6484 29.9527 31.6311C30.0159 31.5618 30.0791 31.4752 30.1549 31.3887C31.115 30.1075 31.7593 29.4842 33.3131 29.5015C34.3995 29.5362 34.4753 30.0036 34.9933 30.2979C34.9933 30.2979 35.0059 30.3153 35.0186 30.2979C35.1954 30.4018 35.4355 30.5057 35.8397 30.523C35.8902 30.523 35.9281 30.523 35.9787 30.523C39.1875 30.6442 43.2047 22.8706 50.1781 19.9446C57.1515 17.0187 63.986 12.6038 67.8896 8.56983C71.7553 4.57047 75.8357 -1.45454 75.9999 0.311413C76.1515 2.07736 73.7513 6.23254 73.7513 6.23254C73.7513 6.23254 74.8503 7.25402 72.9807 10.3358C71.111 13.4348 73.0565 12.8462 69.3676 15.5298C67.4727 16.9148 66.0704 21.8491 63.3291 24.0998C60.7519 26.1947 57.8464 28.6532 54.7892 31.4752C48.4727 37.3098 43.091 38.262 41.853 38.6256C40.6276 38.9892 40.5771 40.4089 41.7519 40.6686C42.9394 40.9456 48.0432 42.7981 49.4581 43.4214C50.8603 44.0447 48.8011 44.7026 48.2832 46.1569C47.7526 47.6112 47.121 51.1258 45.1881 51.5759C43.2679 52.0434 42.8889 54.0863 41.1961 53.9998C40.8803 53.9998 37.5704 53.2726 36.5345 53.0302C36.5472 53.4284 35.9029 53.186 35.8776 52.8571C34.1595 52.3896 32.9847 50.6583 31.3929 49.9485C29.7506 49.2213 30.6728 47.8016 29.2074 46.884C27.7546 45.9837 27.8178 45.7587 29.7885 44.4082C31.7593 43.0751 31.6708 42.6423 31.2918 41.413C30.9128 40.2011 19.7579 44.0447 9.98 39.7683C5.25527 37.708 3.46139 34.4012 2.66551 34.003C0.543167 32.9469 -0.694862 30.4364 0.429474 30.1421Z" fill="#1D1C18"/>
</g>
<defs>
<clipPath id="clip0_1470_2471">
<rect width="76" height="54" fill="white" transform="matrix(-1 0 0 1 76 0)"/>
</clipPath>
</defs>
</svg>
