<svg width="100" height="64" viewBox="0 0 100 64" fill="none" xmlns="http://www.w3.org/2000/svg">
<g opacity="0.2" clip-path="url(#clip0_1450_6580)">
<path d="M0.56488 35.7242C2.04427 35.3753 5.73443 39.9512 12.1008 39.0688C18.4671 38.207 29.3215 37.8787 33.7763 38.1044C35.023 38.166 35.9206 38.2275 36.6187 38.2686C36.8182 38.2686 37.0011 38.2686 37.1673 38.2891C38.148 38.3301 38.6134 38.2275 39.0955 37.7761C39.0955 37.7761 39.1287 37.7556 39.1453 37.7351C39.2118 37.6735 39.2783 37.612 39.3448 37.5504C39.3614 37.5299 39.378 37.5094 39.4113 37.4888C39.4944 37.4068 39.5775 37.3042 39.6772 37.2016C40.9405 35.6831 41.7883 34.9444 43.8328 34.965C45.2624 35.006 45.3621 35.56 46.0436 35.9088C46.0436 35.9088 46.0602 35.9294 46.0769 35.9088C46.3096 36.032 46.6254 36.1551 47.1573 36.1756C47.2238 36.1756 47.2737 36.1756 47.3401 36.1756C51.5622 36.3192 56.8481 27.106 66.0237 23.6383C75.1992 20.1705 84.1919 14.938 89.3282 10.157C94.4146 5.41702 99.7836 -1.72373 99.9997 0.369253C100.199 2.46223 97.0409 7.38689 97.0409 7.38689C97.0409 7.38689 98.4871 8.59753 96.027 12.25C93.5669 15.923 96.1267 15.2253 91.273 18.4058C88.7796 20.0474 86.9346 25.8954 83.3275 28.5629C79.9366 31.0458 76.1134 33.9595 72.0908 37.3042C63.7796 44.2192 56.6985 45.3478 55.0695 45.7787C53.4572 46.2096 53.3907 47.8922 54.9366 48.2C56.4991 48.5283 63.2145 50.7239 65.0762 51.4626C66.9213 52.2012 64.2118 52.981 63.5303 54.7046C62.8322 56.4282 62.0011 60.5937 59.4578 61.1272C56.9312 61.6812 56.4326 64.1025 54.2052 63.9999C53.7896 63.9999 49.4346 63.1381 48.0715 62.8508C48.0882 63.3228 47.2404 63.0355 47.2072 62.6456C44.9465 62.0916 43.4007 60.0397 41.3062 59.1984C39.1453 58.3366 40.3588 56.654 38.4306 55.5664C36.519 54.4994 36.6021 54.2327 39.1952 52.6322C41.7883 51.0522 41.6719 50.5392 41.1733 49.0823C40.6746 47.6459 25.9971 52.2012 13.1314 47.133C6.91462 44.6912 4.55424 40.7719 3.50703 40.3C0.714485 39.0483 -0.914505 36.073 0.56488 35.7242Z" fill="#1D1C18"/>
</g>
<defs>
<clipPath id="clip0_1450_6580">
<rect width="100" height="64" fill="white" transform="matrix(-1 0 0 1 100 0)"/>
</clipPath>
</defs>
</svg>
