<svg width="222" height="47" viewBox="0 0 222 47" fill="none" xmlns="http://www.w3.org/2000/svg">
<path d="M198.55 0H23.1642C10.371 0 0 10.371 0 23.1642C0 35.9574 10.3709 46.3284 23.1642 46.3284H198.55C211.343 46.3284 221.714 35.9574 221.714 23.1642C221.714 10.371 211.343 0 198.55 0Z" fill="#146EF5"/>
<g clip-path="url(#clip0_1704_2866)">
<path d="M31.5656 30.2134C32.8118 27.8075 34.0083 25.4965 35.2026 23.1878L35.1076 23.123C34.7123 23.5679 34.3257 24.0236 33.9176 24.4555C31.2006 27.3302 27.8206 28.9889 23.9784 29.7772C23.1534 29.9456 22.3111 30.032 21.4817 30.1854C21.0822 30.2588 21.0022 30.1206 21.0044 29.7469C21.0217 27.7232 21.0238 25.6974 21.0022 23.6737C20.9979 23.2785 21.1189 23.1662 21.5033 23.1165C23.473 22.8617 25.3153 22.2591 26.9005 21.0194C27.0949 20.866 27.272 20.6911 27.4837 20.5054C27.2785 20.3499 27.0755 20.4103 26.894 20.4103C25.1144 20.4039 23.3326 20.3952 21.553 20.4147C21.1491 20.419 20.9958 20.3391 21.0001 19.892C21.0282 17.756 21.0217 15.6243 21.0066 13.4905C21.0022 13.1341 21.0714 12.9981 21.4688 13.0002C23.6263 13.0218 25.7861 13.024 27.9437 13.0002C28.3692 12.9959 28.4447 13.1406 28.4404 13.5229C28.421 15.1535 28.4318 16.7841 28.4318 18.4147C28.4318 18.6069 28.4318 18.797 28.4318 19.0346C28.7212 18.9525 28.7471 18.7365 28.8249 18.5789C29.6823 16.8662 30.5397 15.1557 31.3777 13.4343C31.5332 13.1212 31.7038 12.9938 32.0688 13.0002C33.6325 13.024 35.1983 13.0218 36.7619 13.0024C37.1205 12.9981 37.2112 13.1082 37.209 13.4538C37.1917 15.1384 37.1982 16.823 37.2047 18.5054C37.2047 18.6696 37.1356 18.8553 37.276 19.0108C37.4984 18.9568 37.5114 18.7473 37.587 18.6048C38.5113 16.8467 39.4292 15.0844 40.345 13.322C40.44 13.1406 40.5199 13.0024 40.7748 13.0024C43.3816 13.0132 45.9884 13.0089 48.6816 13.0089C48.2799 13.8058 47.9084 14.5509 47.5283 15.2896C45.0424 20.1274 42.5565 24.9652 40.0685 29.8031C39.967 29.9996 39.9173 30.2178 39.5934 30.2178C36.952 30.2048 34.3106 30.2091 31.5699 30.2091L31.5656 30.2134Z" fill="#FDFEFF"/>
<path d="M147.888 21.5183C147.888 19.8704 147.896 18.2225 147.881 16.5746C147.879 16.2377 147.961 16.1124 148.328 16.1189C149.641 16.1426 150.952 16.1232 152.265 16.1297C154.438 16.1383 155.939 17.5854 155.969 19.6868C155.998 21.7537 154.484 23.272 152.33 23.3217C151.665 23.3368 151 23.3368 150.335 23.3195C150.052 23.313 149.963 23.4037 149.968 23.6867C149.983 24.6348 149.961 25.5851 149.98 26.5354C149.987 26.868 149.918 27.0256 149.542 26.9954C149.149 26.963 148.749 26.963 148.356 26.9954C147.972 27.0278 147.827 26.8874 147.886 26.5181C147.888 26.5008 147.886 26.4814 147.886 26.4641C147.886 24.8162 147.886 23.1683 147.886 21.5204L147.888 21.5183ZM149.974 19.73C149.974 20.2311 149.98 20.7321 149.97 21.231C149.965 21.4556 150.043 21.555 150.276 21.5507C150.939 21.5355 151.607 21.5723 152.265 21.5096C153.233 21.4189 153.805 20.6716 153.773 19.635C153.743 18.6825 153.123 18.0065 152.175 17.9482C151.585 17.9115 150.989 17.9547 150.399 17.9223C150.021 17.9007 149.95 18.0627 149.968 18.3909C149.989 18.8359 149.974 19.2851 149.974 19.7322V19.73Z" fill="#FDFEFF"/>
<path d="M53.9407 21.542C53.9407 19.8963 53.9515 18.2484 53.9321 16.6027C53.9277 16.2312 54.0249 16.1124 54.4094 16.1189C55.7376 16.1427 57.068 16.1189 58.3963 16.1297C60.4955 16.1491 62.0009 17.5854 62.0268 19.5745C62.0549 21.7537 60.6446 23.2482 58.4697 23.3238C57.8067 23.3476 57.1393 23.3454 56.4762 23.3217C56.1415 23.3087 56.0465 23.4253 56.0529 23.7493C56.0702 24.6801 56.0465 25.611 56.0659 26.5419C56.0724 26.8853 55.9817 27.03 55.6145 26.9976C55.081 26.95 54.3878 27.2114 54.0508 26.9025C53.7074 26.585 53.9515 25.8874 53.945 25.3583C53.9277 24.0884 53.9385 22.8163 53.9385 21.5464L53.9407 21.542ZM56.0616 19.7149C56.0616 20.2159 56.0659 20.717 56.0594 21.2181C56.0573 21.434 56.1199 21.555 56.3618 21.5485C57.0248 21.5334 57.6922 21.5679 58.3531 21.5096C59.2774 21.4297 59.88 20.6609 59.8627 19.6738C59.8455 18.7279 59.2148 18.0108 58.2904 17.9504C57.6641 17.9093 57.0335 17.946 56.4071 17.9245C56.1026 17.9137 56.0529 18.0648 56.0594 18.3175C56.0702 18.7819 56.0637 19.2484 56.0637 19.7127L56.0616 19.7149Z" fill="#F7F9FD"/>
<path d="M136.616 19.6609C136.708 19.085 137.052 18.797 137.648 18.797C138.354 18.797 138.706 19.157 138.706 19.8769C138.706 22.0777 138.698 24.2784 138.715 26.4792C138.717 26.8637 138.633 27.0559 138.212 26.9889C138.054 26.9652 137.89 26.9846 137.728 26.9846C137.089 26.9846 136.729 26.6592 136.648 26.0084C136.072 26.5807 135.439 26.9954 134.648 27.0904C132.368 27.3604 130.599 25.7665 130.452 23.313C130.402 22.4837 130.497 21.6738 130.813 20.8941C131.756 18.5551 134.735 17.8208 136.618 19.6587L136.616 19.6609ZM136.73 22.866C136.719 22.6867 136.717 22.5074 136.696 22.3303C136.566 21.2116 135.75 20.3844 134.726 20.3239C133.711 20.2635 132.903 20.8855 132.642 21.9653C132.484 22.6176 132.489 23.2785 132.689 23.9264C132.979 24.8529 133.631 25.3842 134.508 25.4145C135.437 25.4469 136.167 24.935 136.523 24.0193C136.668 23.6456 136.722 23.2612 136.728 22.866H136.73Z" fill="#F7F9FD"/>
<path d="M163.008 19.7085C163.037 19.1023 163.32 18.7993 163.857 18.7993C164.656 18.7993 165.055 19.2024 165.055 20.0087C165.055 22.175 165.047 24.3433 165.064 26.5096C165.066 26.8767 164.978 27.043 164.589 26.9934C164.394 26.9696 164.194 26.989 163.997 26.989C163.378 26.989 163.051 26.686 163.017 26.0798C162.967 26.0949 162.906 26.0927 162.88 26.123C161.319 27.827 158.062 27.4512 157.101 24.6759C156.539 23.0518 156.634 21.4536 157.68 20.026C158.909 18.35 161.25 18.147 162.794 19.5401C162.842 19.5833 162.896 19.6221 163.01 19.7107L163.008 19.7085ZM158.9 22.9417C158.907 23.0712 158.909 23.2505 158.928 23.4276C159.045 24.5075 159.775 25.3087 160.723 25.4016C161.794 25.5053 162.621 24.9222 162.945 23.7969C163.15 23.0777 163.146 22.3499 162.85 21.6458C162.474 20.7474 161.719 20.2657 160.786 20.3262C159.941 20.3802 159.287 20.9698 159.019 21.8877C158.922 22.2203 158.909 22.5551 158.898 22.9438L158.9 22.9417Z" fill="#F7F9FD"/>
<path d="M192.188 23.3952C191.29 23.3952 190.391 23.4038 189.493 23.3909C189.186 23.3865 189.085 23.4772 189.128 23.799C189.236 24.6198 189.854 25.3174 190.692 25.5117C191.59 25.7191 192.478 25.4081 192.89 24.6716C193.05 24.3865 193.218 24.3066 193.516 24.3217C193.912 24.3411 194.307 24.3411 194.702 24.3217C195.061 24.3044 195.141 24.4232 195.02 24.7623C194.568 26.0258 193.631 26.7233 192.372 27.043C190.225 27.5872 188.169 26.6564 187.381 24.799C186.517 22.7624 187.152 20.3391 188.897 19.2657C190.346 18.3738 191.884 18.3824 193.35 19.2053C194.827 20.0346 195.255 21.4449 195.229 23.0453C195.225 23.3347 195.097 23.4038 194.832 23.3995C193.951 23.3887 193.072 23.3952 192.19 23.3952H192.188ZM193.095 22.054C192.974 20.9827 192.339 20.3111 191.406 20.2203C190.381 20.121 189.489 20.6998 189.206 21.6415C189.137 21.8682 189.065 22.0583 189.435 22.0561C190.653 22.0475 191.871 22.0518 193.095 22.0518V22.054Z" fill="#F7F9FD"/>
<path d="M88.0603 23.3952C87.1791 23.3952 86.3001 23.4103 85.4189 23.3887C85.028 23.3801 84.9653 23.5291 85.0388 23.8704C85.2375 24.7753 85.8616 25.3908 86.773 25.5528C87.611 25.7018 88.3907 25.3412 88.8702 24.5723C88.9263 24.4816 88.9501 24.3455 89.0689 24.3434C89.6606 24.3304 90.2546 24.3131 90.8463 24.3434C91.1379 24.3563 90.9694 24.5982 90.9349 24.7148C90.639 25.6802 89.9911 26.3476 89.0861 26.7601C87.0776 27.678 83.9913 27.2331 83.1252 24.3455C82.5054 22.2786 83.2807 20.0627 84.9891 19.1556C86.4448 18.3846 87.9436 18.4127 89.354 19.2571C90.7448 20.0908 91.1379 21.4601 91.1573 22.9892C91.1617 23.3391 91.0018 23.4039 90.7016 23.3995C89.8205 23.3887 88.9414 23.3952 88.0603 23.3952ZM86.9566 22.054C86.9566 22.054 86.9566 22.0475 86.9566 22.0454C87.5117 22.0454 88.0689 22.0259 88.624 22.0519C88.989 22.0691 89.0537 21.9396 88.9609 21.6156C88.7103 20.7344 87.935 20.1794 86.9782 20.2139C86.0647 20.2485 85.2699 20.9158 85.082 21.7603C85.0193 22.0454 85.1338 22.0562 85.3433 22.054C85.8811 22.0497 86.4189 22.054 86.9566 22.054Z" fill="#F7F9FD"/>
<path d="M120.301 22.9352C120.293 25.4535 118.556 27.2029 116.085 27.177C113.608 27.1532 111.954 25.4125 111.969 22.8488C111.984 20.3003 113.679 18.5877 116.172 18.6071C118.636 18.6265 120.312 20.3824 120.303 22.9352H120.301ZM114.036 22.9309C113.999 23.2095 114.075 23.5443 114.161 23.8726C114.409 24.8164 115.183 25.4492 116.085 25.4643C117.027 25.4816 117.744 24.9287 118.055 23.9482C118.314 23.1318 118.273 22.324 117.947 21.54C117.645 20.8187 117.081 20.404 116.301 20.3392C115.573 20.2766 114.956 20.5314 114.532 21.1448C114.176 21.6588 114.029 22.2441 114.038 22.9331L114.036 22.9309Z" fill="#F7F9FD"/>
<path d="M68.3526 22.8768C68.3785 20.2851 70.0782 18.5703 72.5857 18.607C75.0673 18.6437 76.7216 20.4169 76.6935 23.0108C76.6655 25.4729 74.888 27.2158 72.4496 27.1769C69.9918 27.1359 68.3267 25.3886 68.3526 22.8768ZM74.6072 22.8445C74.5856 22.6436 74.577 22.3909 74.5316 22.1469C74.3329 21.0648 73.5705 20.3607 72.5792 20.3305C71.5685 20.2981 70.7996 20.9309 70.5339 22.0194C70.3568 22.7494 70.3763 23.4773 70.6592 24.177C71.1603 25.4167 72.6678 25.8681 73.685 25.0884C74.4085 24.5355 74.5727 23.7386 74.6094 22.8466L74.6072 22.8445Z" fill="#F7F9FD"/>
<path d="M123.772 19.6998C124.705 18.7085 125.785 18.4277 127.014 18.7257C128.158 19.0043 128.988 20.013 129.024 21.2894C129.074 23.0798 129.037 24.8724 129.05 26.6628C129.05 26.9285 128.947 26.9803 128.702 26.9933C127.016 27.0818 127.016 27.0883 127.016 25.4123C127.016 24.3562 127.02 23.2979 127.016 22.2418C127.009 21.0021 126.497 20.3866 125.495 20.3931C124.476 20.3995 123.767 21.1771 123.761 22.3152C123.752 23.6953 123.746 25.0732 123.767 26.4533C123.774 26.8507 123.7 27.0451 123.249 26.9976C122.77 26.9479 122.128 27.1444 121.843 26.9004C121.508 26.6153 121.739 25.9566 121.735 25.462C121.722 23.4016 121.735 21.3412 121.722 19.283C121.72 18.9158 121.815 18.7495 122.202 18.7949C122.396 18.8186 122.597 18.7992 122.796 18.7992C123.383 18.7992 123.71 19.0994 123.776 19.6998H123.772Z" fill="#F7F9FD"/>
<path d="M180.372 19.7257C181.42 18.6437 182.584 18.3543 183.888 18.8165C185.132 19.2571 185.631 20.2721 185.666 21.4989C185.715 23.1986 185.672 24.8983 185.685 26.6002C185.687 26.9069 185.588 27.0192 185.286 26.9911C184.757 26.9415 184.078 27.2114 183.733 26.8767C183.437 26.5894 183.655 25.9242 183.651 25.4275C183.64 24.3174 183.655 23.2072 183.644 22.0993C183.633 21.0281 183.106 20.4212 182.195 20.3931C181.219 20.365 180.433 21.0691 180.409 22.0777C180.374 23.5442 180.381 25.0128 180.4 26.4793C180.405 26.8659 180.323 27.0343 179.901 26.9954C179.51 26.9587 179.111 26.9717 178.716 26.9933C178.424 27.0084 178.353 26.8939 178.355 26.6197C178.364 24.1316 178.364 21.6436 178.355 19.1556C178.355 18.8662 178.461 18.7798 178.733 18.7927C179.074 18.8078 179.42 18.8294 179.757 18.7884C180.243 18.7279 180.413 18.9158 180.34 19.3802C180.327 19.4601 180.355 19.5465 180.374 19.7257H180.372Z" fill="#F7F9FD"/>
<path d="M93.1962 24.514C93.4057 24.514 93.5677 24.527 93.7275 24.5119C94.0407 24.4795 94.2221 24.5508 94.369 24.892C94.7059 25.6695 96.0341 25.92 96.7015 25.3823C97.1896 24.9892 97.0903 24.2916 96.4704 24.0475C96.0082 23.8661 95.5028 23.7884 95.0191 23.6609C94.6908 23.5745 94.3582 23.4968 94.0385 23.3845C93.1768 23.0843 92.5829 22.5314 92.4749 21.5897C92.3669 20.6481 92.6844 19.8641 93.4511 19.281C94.6605 18.3631 96.7555 18.389 97.9455 19.3242C98.4639 19.7324 98.7317 20.2831 98.8893 20.9073C98.952 21.1535 98.8569 21.2269 98.6237 21.2226C98.1917 21.2139 97.7598 21.2118 97.33 21.2226C97.0859 21.2291 96.9628 21.1578 96.8549 20.9094C96.5438 20.1967 95.7599 19.9181 95.0515 20.2269C94.6929 20.3824 94.4791 20.6481 94.4726 21.052C94.4662 21.4602 94.7275 21.6891 95.0687 21.7863C95.6368 21.9504 96.2199 22.0584 96.7944 22.1945C98.2738 22.5443 98.9952 23.2938 99.0124 24.4968C99.0319 25.717 98.1917 26.7321 96.7965 27.0301C95.4078 27.3282 94.0753 27.1986 92.9738 26.1641C92.8312 26.0302 92.7103 25.8704 92.6088 25.7019C92.4058 25.3628 92.1336 24.9438 92.2956 24.6134C92.4295 24.3391 92.9198 24.5702 93.1984 24.5119L93.1962 24.514Z" fill="#F7F9FD"/>
<path d="M101.196 24.5141C101.392 24.5141 101.593 24.5271 101.788 24.5098C102.034 24.4882 102.153 24.5767 102.261 24.8143C102.617 25.5983 103.777 25.9179 104.513 25.4601C104.768 25.3024 104.962 25.0821 104.947 24.7646C104.932 24.4363 104.755 24.2031 104.448 24.0584C103.971 23.8316 103.444 23.8057 102.945 23.6567C102.636 23.566 102.315 23.512 102.012 23.404C101.191 23.1081 100.561 22.62 100.433 21.687C100.289 20.6352 100.626 19.7821 101.52 19.1795C102.742 18.3545 104.718 18.4301 105.882 19.3285C106.101 19.497 106.276 19.6979 106.418 19.9225C106.651 20.2875 106.952 20.7324 106.779 21.1039C106.643 21.3976 106.124 21.1859 105.777 21.214C105.297 21.2529 104.895 21.2615 104.625 20.6633C104.327 20.0024 103.237 19.9225 102.69 20.4041C102.222 20.8188 102.299 21.4494 102.863 21.7215C103.368 21.9656 103.936 21.998 104.47 22.1449C104.781 22.2291 105.101 22.2917 105.401 22.4019C106.237 22.7085 106.798 23.2679 106.908 24.1837C107.034 25.2247 106.658 26.0842 105.755 26.6026C104.34 27.4146 102.872 27.3628 101.446 26.5939C100.801 26.2462 100.42 25.6652 100.228 24.959C100.137 24.6242 100.213 24.4558 100.6 24.5076C100.794 24.5335 100.995 24.5119 101.191 24.5119L101.196 24.5141Z" fill="#F7F9FD"/>
<path d="M78.646 23.7085C78.646 22.7582 78.6373 21.8101 78.6503 20.8598C78.6546 20.5618 78.6157 20.4128 78.2507 20.4128C77.3264 20.4128 77.3588 20.389 77.3134 19.4322C77.2896 18.9096 77.4408 18.7066 77.9613 18.7973C78.4667 18.8858 78.6568 18.7346 78.6697 18.158C78.7043 16.4086 80.4018 15.1408 82.1188 15.5036C82.3305 15.549 82.4277 15.6354 82.4169 15.86C82.4018 16.1645 82.3931 16.4712 82.4169 16.7736C82.445 17.1191 82.3435 17.2185 81.9741 17.2034C81.0822 17.1645 80.648 17.6224 80.674 18.4539C80.6826 18.6979 80.7431 18.8318 81.0087 18.7994C81.0627 18.7929 81.1167 18.7994 81.1707 18.7994C82.3953 18.8145 82.4795 18.9204 82.3067 20.1687C82.283 20.3436 82.2355 20.4344 82.0497 20.4236C81.9612 20.4171 81.8705 20.4236 81.7798 20.4236C81.0454 20.4279 80.6783 20.8044 80.6783 21.5531C80.6783 23.201 80.6632 24.8489 80.6891 26.4968C80.6956 26.9114 80.5703 27.0324 80.1729 26.9935C79.8533 26.9611 79.5228 26.959 79.2032 26.9935C78.7691 27.041 78.6071 26.9179 78.6265 26.4493C78.6676 25.5378 78.6373 24.6221 78.6373 23.7085H78.646Z" fill="#FDFEFF"/>
<path d="M173.727 23.7131C173.727 22.7649 173.718 21.8146 173.731 20.8665C173.735 20.5663 173.688 20.4259 173.327 20.4216C172.193 20.4108 172.211 20.3935 172.219 19.2381C172.221 18.8709 172.351 18.7932 172.69 18.791C173.725 18.7888 173.725 18.7737 173.725 17.7543C173.725 17.105 174.056 16.7803 174.72 16.7803C175.406 16.7803 175.748 17.1136 175.748 17.7802C175.748 18.7845 175.748 18.8083 176.755 18.7888C177.18 18.7802 177.26 18.9335 177.256 19.3158C177.243 20.4065 177.26 20.4259 176.178 20.4216C175.8 20.4216 175.74 20.5598 175.744 20.8881C175.757 22.7325 175.731 24.577 175.763 26.4214C175.772 26.916 175.614 27.0456 175.156 26.9959C174.837 26.9613 174.506 26.9635 174.187 26.9959C173.789 27.0369 173.707 26.8663 173.718 26.5056C173.742 25.5748 173.727 24.6439 173.727 23.7109V23.7131Z" fill="#F7F9FD"/>
<path d="M142.482 21.3995C142.482 23.0819 142.471 24.7644 142.488 26.4468C142.492 26.8378 142.43 27.0516 141.968 26.9954C141.492 26.9371 140.866 27.1876 140.566 26.8982C140.264 26.6067 140.473 25.9825 140.473 25.5073C140.464 22.393 140.477 19.2786 140.46 16.1664C140.458 15.7431 140.572 15.6243 140.998 15.6265C142.482 15.6373 142.482 15.62 142.482 17.1038C142.482 18.5875 142.482 19.9676 142.482 21.3995Z" fill="#F7F9FD"/>
<path d="M65.2924 19.6761C65.8215 19.0152 66.4327 18.6891 67.1865 18.62C67.5148 18.5897 67.7178 18.6718 67.6724 19.0519C67.6595 19.1578 67.6724 19.2657 67.6724 19.3737C67.6681 19.7128 67.7696 20.1102 67.6271 20.378C67.4586 20.6998 67.018 20.4579 66.6984 20.5227C65.8453 20.6955 65.3377 21.3132 65.3269 22.311C65.314 23.6716 65.3053 25.0344 65.3334 26.3951C65.3421 26.8443 65.2578 27.0646 64.7524 26.9976C64.4177 26.9523 64.0678 26.9652 63.7287 26.9976C63.3788 27.0279 63.3141 26.8789 63.3162 26.5657C63.327 24.1295 63.327 21.6933 63.3162 19.2593C63.3162 18.9223 63.3896 18.756 63.759 18.7992C63.9728 18.823 64.1909 18.8036 64.4047 18.8036C64.9547 18.8036 65.2506 19.0966 65.2924 19.6826V19.6761Z" fill="#F7F9FD"/>
<path d="M198.585 19.6677C199.097 19.0219 199.698 18.7088 200.426 18.6245C200.804 18.5792 201.026 18.6742 200.974 19.104C200.963 19.1926 200.974 19.2833 200.974 19.3718C200.97 19.7109 201.069 20.1061 200.929 20.3761C200.758 20.7022 200.318 20.456 199.998 20.5186C199.177 20.6828 198.633 21.2897 198.622 22.1838C198.607 23.6157 198.605 25.0476 198.626 26.4774C198.633 26.864 198.547 27.0432 198.125 26.9893C197.633 26.9266 196.972 27.2052 196.687 26.8726C196.443 26.5897 196.601 25.9547 196.601 25.4753C196.596 23.417 196.609 21.3609 196.59 19.3027C196.586 18.9139 196.674 18.7325 197.091 18.7908C197.285 18.8168 197.486 18.7952 197.683 18.7952C198.228 18.7952 198.53 19.0853 198.588 19.6655L198.585 19.6677Z" fill="#F7F9FD"/>
<path d="M168.792 19.6807C169.323 19.0479 169.904 18.7024 170.632 18.6246C171.027 18.5814 171.273 18.6678 171.206 19.1321C171.193 19.2207 171.206 19.3114 171.206 19.4C171.2 19.739 171.301 20.1364 171.159 20.4021C171.001 20.6915 170.571 20.4604 170.262 20.5187C169.435 20.6764 168.874 21.2357 168.854 22.0975C168.822 23.5445 168.818 24.9959 168.844 26.4429C168.852 26.9008 168.71 27.0433 168.269 26.9936C167.809 26.9418 167.213 27.1815 166.919 26.8986C166.621 26.6135 166.826 26.0174 166.824 25.5596C166.813 23.4668 166.828 21.374 166.811 19.2812C166.809 18.9183 166.895 18.7499 167.286 18.7931C167.517 18.819 167.753 18.7974 167.986 18.7974C168.494 18.7974 168.763 19.0911 168.792 19.6786V19.6807Z" fill="#F7F9FD"/>
<path d="M110.483 22.9589C110.483 24.1554 110.47 25.354 110.491 26.5505C110.498 26.9047 110.388 27.0192 110.038 26.9933C109.539 26.9566 108.889 27.1445 108.58 26.8961C108.25 26.6283 108.479 25.9544 108.476 25.4599C108.463 23.4038 108.481 21.3499 108.461 19.2938C108.457 18.8877 108.582 18.7517 108.98 18.7906C109.457 18.8381 110.077 18.5962 110.381 18.8856C110.688 19.1771 110.47 19.7992 110.478 20.2765C110.494 21.1706 110.483 22.0626 110.483 22.9567V22.9589Z" fill="#F7F9FD"/>
<path d="M110.584 16.7043C110.584 17.3796 110.25 17.7173 109.582 17.7173C108.819 17.7173 108.438 17.3343 108.438 16.5683C108.438 15.9463 108.748 15.6353 109.368 15.6353C109.422 15.6353 109.476 15.6353 109.53 15.6353C110.233 15.6353 110.584 15.9909 110.584 16.7022V16.7043Z" fill="#F7F9FD"/>
</g>
<defs>
<clipPath id="clip0_1704_2866">
<rect width="180" height="17.2197" fill="white" transform="translate(23 14)"/>
</clipPath>
</defs>
</svg>
